<svg width="43" height="42" viewBox="0 0 43 42" fill="none" xmlns="http://www.w3.org/2000/svg">
<path d="M20.9637 16.0661C22.9779 12.8555 24.7152 9.81091 26.764 6.93858C28.0237 5.21996 29.4998 3.69461 31.1504 2.40559C32.2643 1.47341 33.5818 0.857509 34.9797 0.615486C36.3777 0.373464 37.8104 0.51323 39.1439 1.02171C41.9662 2.05501 42.7165 4.25692 42.9185 6.71716C43.5649 14.6084 40.2982 21.4786 35.5829 27.9798C32.12 32.728 27.7221 36.769 23.1453 40.6869C21.6736 41.9478 20.3403 41.5542 19.163 40.773C16.635 39.0939 13.8993 37.5009 11.9139 35.3789C6.91583 30.0341 2.67955 24.2095 0.682606 17.3392C-0.243071 14.3403 -0.226871 11.1016 0.728771 8.11335C2.32171 3.24207 7.45835 1.46455 12.3353 4.09085C14.1397 4.99512 15.7509 6.28426 17.0693 7.87854C18.3876 9.47283 19.385 11.3384 19.9998 13.3598C20.2769 14.2147 20.6058 15.0574 20.9637 16.0661Z" fill="white"/>
</svg>
