<svg width="680" height="13" viewBox="0 0 680 13" fill="none" xmlns="http://www.w3.org/2000/svg">
<g clip-path="url(#clip0_193_5791)">
<rect width="985.263" height="13" transform="translate(-188.632)" fill="#F9F9F9"/>
<mask id="mask0_193_5791" style="mask-type:luminance" maskUnits="userSpaceOnUse" x="-189" y="0" width="998" height="13">
<path d="M808.263 0H-188.632V13H808.263V0Z" fill="white"/>
</mask>
<g mask="url(#mask0_193_5791)">
<path d="M531.165 3.8731C532.075 3.8731 532.814 3.13309 532.814 2.22024C532.814 1.30739 532.075 0.567383 531.165 0.567383C530.248 0.567383 529.509 1.30739 529.509 2.22024C529.509 3.13309 530.248 3.8731 531.165 3.8731Z" fill="#DA1984"/>
<path d="M512.643 3.8731C513.553 3.8731 514.292 3.13309 514.292 2.22024C514.292 1.30739 513.553 0.567383 512.643 0.567383C511.726 0.567383 510.987 1.30739 510.987 2.22024C510.987 3.13309 511.726 3.8731 512.643 3.8731Z" fill="#DA1984"/>
<path d="M494.119 3.8731C495.033 3.8731 495.77 3.13309 495.77 2.22024C495.77 1.30739 495.033 0.567383 494.119 0.567383C493.207 0.567383 492.466 1.30739 492.466 2.22024C492.466 3.13309 493.207 3.8731 494.119 3.8731Z" fill="#DA1984"/>
<path d="M586.709 3.8731C587.619 3.8731 588.365 3.13309 588.365 2.22024C588.365 1.30739 587.619 0.567383 586.709 0.567383C585.799 0.567383 585.053 1.30739 585.053 2.22024C585.053 3.13309 585.799 3.8731 586.709 3.8731Z" fill="#DA1984"/>
<path d="M568.194 3.8731C569.111 3.8731 569.85 3.13309 569.85 2.22024C569.85 1.30739 569.111 0.567383 568.194 0.567383C567.284 0.567383 566.545 1.30739 566.545 2.22024C566.545 3.13309 567.284 3.8731 568.194 3.8731Z" fill="#DA1984"/>
<path d="M549.673 3.8731C550.589 3.8731 551.328 3.13309 551.328 2.22024C551.328 1.30739 550.589 0.567383 549.673 0.567383C548.763 0.567383 548.024 1.30739 548.024 2.22024C548.024 3.13309 548.763 3.8731 549.673 3.8731Z" fill="#DA1984"/>
<path d="M475.608 3.8731C476.521 3.8731 477.261 3.13309 477.261 2.22024C477.261 1.30739 476.521 0.567383 475.608 0.567383C474.694 0.567383 473.955 1.30739 473.955 2.22024C473.955 3.13309 474.694 3.8731 475.608 3.8731Z" fill="#DA1984"/>
<path d="M522.072 12.7959C522.982 12.7959 523.72 12.056 523.72 11.1431C523.72 10.2303 522.982 9.49023 522.072 9.49023C521.155 9.49023 520.416 10.2303 520.416 11.1431C520.416 12.056 521.155 12.7959 522.072 12.7959Z" fill="#DA1984"/>
<path d="M503.509 12.7959C504.426 12.7959 505.165 12.056 505.165 11.1431C505.165 10.2303 504.426 9.49023 503.509 9.49023C502.599 9.49023 501.86 10.2303 501.86 11.1431C501.86 12.056 502.599 12.7959 503.509 12.7959Z" fill="#DA1984"/>
<path d="M484.952 12.7959C485.865 12.7959 486.606 12.056 486.606 11.1431C486.606 10.2303 485.865 9.49023 484.952 9.49023C484.039 9.49023 483.299 10.2303 483.299 11.1431C483.299 12.056 484.039 12.7959 484.952 12.7959Z" fill="#DA1984"/>
<path d="M577.746 12.7959C578.656 12.7959 579.402 12.056 579.402 11.1431C579.402 10.2303 578.656 9.49023 577.746 9.49023C576.829 9.49023 576.09 10.2303 576.09 11.1431C576.09 12.056 576.829 12.7959 577.746 12.7959Z" fill="#DA1984"/>
<path d="M559.19 12.7959C560.1 12.7959 560.839 12.056 560.839 11.1431C560.839 10.2303 560.1 9.49023 559.19 9.49023C558.273 9.49023 557.534 10.2303 557.534 11.1431C557.534 12.056 558.273 12.7959 559.19 12.7959Z" fill="#DA1984"/>
<path d="M540.627 12.7959C541.544 12.7959 542.283 12.056 542.283 11.1431C542.283 10.2303 541.544 9.49023 540.627 9.49023C539.717 9.49023 538.972 10.2303 538.972 11.1431C538.972 12.056 539.717 12.7959 540.627 12.7959Z" fill="#DA1984"/>
<path d="M400.481 3.8731C401.394 3.8731 402.134 3.13309 402.134 2.22024C402.134 1.30739 401.394 0.567383 400.481 0.567383C399.568 0.567383 398.827 1.30739 398.827 2.22024C398.827 3.13309 399.568 3.8731 400.481 3.8731Z" fill="#DA1984"/>
<path d="M381.96 3.8731C382.872 3.8731 383.613 3.13309 383.613 2.22024C383.613 1.30739 382.872 0.567383 381.96 0.567383C381.046 0.567383 380.306 1.30739 380.306 2.22024C380.306 3.13309 381.046 3.8731 381.96 3.8731Z" fill="#DA1984"/>
<path d="M363.448 3.8731C364.36 3.8731 365.101 3.13309 365.101 2.22024C365.101 1.30739 364.36 0.567383 363.448 0.567383C362.534 0.567383 361.794 1.30739 361.794 2.22024C361.794 3.13309 362.534 3.8731 363.448 3.8731Z" fill="#DA1984"/>
<path d="M456.036 3.8731C456.95 3.8731 457.69 3.13309 457.69 2.22024C457.69 1.30739 456.95 0.567383 456.036 0.567383C455.123 0.567383 454.383 1.30739 454.383 2.22024C454.383 3.13309 455.123 3.8731 456.036 3.8731Z" fill="#DA1984"/>
<path d="M465.576 12.7959C466.489 12.7959 467.229 12.056 467.229 11.1431C467.229 10.2303 466.489 9.49023 465.576 9.49023C464.663 9.49023 463.923 10.2303 463.923 11.1431C463.923 12.056 464.663 12.7959 465.576 12.7959Z" fill="#DA1984"/>
<path d="M661.439 3.8731C662.349 3.8731 663.087 3.13309 663.087 2.22024C663.087 1.30739 662.349 0.567383 661.439 0.567383C660.522 0.567383 659.783 1.30739 659.783 2.22024C659.783 3.13309 660.522 3.8731 661.439 3.8731Z" fill="#DA1984"/>
<path d="M642.917 3.8731C643.827 3.8731 644.566 3.13309 644.566 2.22024C644.566 1.30739 643.827 0.567383 642.917 0.567383C642 0.567383 641.261 1.30739 641.261 2.22024C641.261 3.13309 642 3.8731 642.917 3.8731Z" fill="#DA1984"/>
<path d="M624.402 3.8731C625.312 3.8731 626.058 3.13309 626.058 2.22024C626.058 1.30739 625.312 0.567383 624.402 0.567383C623.492 0.567383 622.746 1.30739 622.746 2.22024C622.746 3.13309 623.492 3.8731 624.402 3.8731Z" fill="#DA1984"/>
<path d="M679.946 3.8731C680.863 3.8731 681.602 3.13309 681.602 2.22024C681.602 1.30739 680.863 0.567383 679.946 0.567383C679.036 0.567383 678.297 1.30739 678.297 2.22024C678.297 3.13309 679.036 3.8731 679.946 3.8731Z" fill="#DA1984"/>
<path d="M605.881 3.8731C606.791 3.8731 607.536 3.13309 607.536 2.22024C607.536 1.30739 606.791 0.567383 605.881 0.567383C604.971 0.567383 604.225 1.30739 604.225 2.22024C604.225 3.13309 604.971 3.8731 605.881 3.8731Z" fill="#DA1984"/>
<path d="M652.345 12.7959C653.255 12.7959 653.994 12.056 653.994 11.1431C653.994 10.2303 653.255 9.49023 652.345 9.49023C651.428 9.49023 650.689 10.2303 650.689 11.1431C650.689 12.056 651.428 12.7959 652.345 12.7959Z" fill="#DA1984"/>
<path d="M633.783 12.7959C634.7 12.7959 635.439 12.056 635.439 11.1431C635.439 10.2303 634.7 9.49023 633.783 9.49023C632.873 9.49023 632.127 10.2303 632.127 11.1431C632.127 12.056 632.873 12.7959 633.783 12.7959Z" fill="#DA1984"/>
<path d="M615.227 12.7959C616.137 12.7959 616.876 12.056 616.876 11.1431C616.876 10.2303 616.137 9.49023 615.227 9.49023C614.31 9.49023 613.571 10.2303 613.571 11.1431C613.571 12.056 614.31 12.7959 615.227 12.7959Z" fill="#DA1984"/>
<path d="M670.901 12.7959C671.811 12.7959 672.557 12.056 672.557 11.1431C672.557 10.2303 671.811 9.49023 670.901 9.49023C669.991 9.49023 669.245 10.2303 669.245 11.1431C669.245 12.056 669.991 12.7959 670.901 12.7959Z" fill="#DA1984"/>
<path d="M595.85 12.7959C596.76 12.7959 597.499 12.056 597.499 11.1431C597.499 10.2303 596.76 9.49023 595.85 9.49023C594.933 9.49023 594.194 10.2303 594.194 11.1431C594.194 12.056 594.933 12.7959 595.85 12.7959Z" fill="#DA1984"/>
<path d="M437.515 3.8731C438.428 3.8731 439.169 3.13309 439.169 2.22024C439.169 1.30739 438.428 0.567383 437.515 0.567383C436.602 0.567383 435.862 1.30739 435.862 2.22024C435.862 3.13309 436.602 3.8731 437.515 3.8731Z" fill="#DA1984"/>
<path d="M419.003 3.8731C419.916 3.8731 420.656 3.13309 420.656 2.22024C420.656 1.30739 419.916 0.567383 419.003 0.567383C418.089 0.567383 417.349 1.30739 417.349 2.22024C417.349 3.13309 418.089 3.8731 419.003 3.8731Z" fill="#DA1984"/>
<path d="M344.926 3.8731C345.839 3.8731 346.579 3.13309 346.579 2.22024C346.579 1.30739 345.839 0.567383 344.926 0.567383C344.013 0.567383 343.272 1.30739 343.272 2.22024C343.272 3.13309 344.013 3.8731 344.926 3.8731Z" fill="#DA1984"/>
<path d="M391.387 12.7959C392.301 12.7959 393.041 12.056 393.041 11.1431C393.041 10.2303 392.301 9.49023 391.387 9.49023C390.475 9.49023 389.734 10.2303 389.734 11.1431C389.734 12.056 390.475 12.7959 391.387 12.7959Z" fill="#DA1984"/>
<path d="M372.829 12.7959C373.742 12.7959 374.483 12.056 374.483 11.1431C374.483 10.2303 373.742 9.49023 372.829 9.49023C371.915 9.49023 371.176 10.2303 371.176 11.1431C371.176 12.056 371.915 12.7959 372.829 12.7959Z" fill="#DA1984"/>
<path d="M354.27 12.7959C355.183 12.7959 355.923 12.056 355.923 11.1431C355.923 10.2303 355.183 9.49023 354.27 9.49023C353.357 9.49023 352.616 10.2303 352.616 11.1431C352.616 12.056 353.357 12.7959 354.27 12.7959Z" fill="#DA1984"/>
<path d="M335.647 12.7959C336.559 12.7959 337.3 12.056 337.3 11.1431C337.3 10.2303 336.559 9.49023 335.647 9.49023C334.733 9.49023 333.993 10.2303 333.993 11.1431C333.993 12.056 334.733 12.7959 335.647 12.7959Z" fill="#DA1984"/>
<path d="M447.073 12.7959C447.986 12.7959 448.726 12.056 448.726 11.1431C448.726 10.2303 447.986 9.49023 447.073 9.49023C446.16 9.49023 445.419 10.2303 445.419 11.1431C445.419 12.056 446.16 12.7959 447.073 12.7959Z" fill="#DA1984"/>
<path d="M428.514 12.7959C429.427 12.7959 430.168 12.056 430.168 11.1431C430.168 10.2303 429.427 9.49023 428.514 9.49023C427.601 9.49023 426.861 10.2303 426.861 11.1431C426.861 12.056 427.601 12.7959 428.514 12.7959Z" fill="#DA1984"/>
<path d="M409.947 12.7959C410.859 12.7959 411.6 12.056 411.6 11.1431C411.6 10.2303 410.859 9.49023 409.947 9.49023C409.033 9.49023 408.293 10.2303 408.293 11.1431C408.293 12.056 409.033 12.7959 409.947 12.7959Z" fill="#DA1984"/>
<path d="M139.527 3.8731C140.44 3.8731 141.18 3.13309 141.18 2.22024C141.18 1.30739 140.44 0.567383 139.527 0.567383C138.613 0.567383 137.873 1.30739 137.873 2.22024C137.873 3.13309 138.613 3.8731 139.527 3.8731Z" fill="#DA1984"/>
<path d="M121.005 3.8731C121.918 3.8731 122.658 3.13309 122.658 2.22024C122.658 1.30739 121.918 0.567383 121.005 0.567383C120.092 0.567383 119.352 1.30739 119.352 2.22024C119.352 3.13309 120.092 3.8731 121.005 3.8731Z" fill="#DA1984"/>
<path d="M102.492 3.8731C103.406 3.8731 104.146 3.13309 104.146 2.22024C104.146 1.30739 103.406 0.567383 102.492 0.567383C101.58 0.567383 100.839 1.30739 100.839 2.22024C100.839 3.13309 101.58 3.8731 102.492 3.8731Z" fill="#DA1984"/>
<path d="M195.082 3.8731C195.995 3.8731 196.735 3.13309 196.735 2.22024C196.735 1.30739 195.995 0.567383 195.082 0.567383C194.169 0.567383 193.428 1.30739 193.428 2.22024C193.428 3.13309 194.169 3.8731 195.082 3.8731Z" fill="#DA1984"/>
<path d="M176.56 3.8731C177.473 3.8731 178.213 3.13309 178.213 2.22024C178.213 1.30739 177.473 0.567383 176.56 0.567383C175.647 0.567383 174.906 1.30739 174.906 2.22024C174.906 3.13309 175.647 3.8731 176.56 3.8731Z" fill="#DA1984"/>
<path d="M158.039 3.8731C158.951 3.8731 159.692 3.13309 159.692 2.22024C159.692 1.30739 158.951 0.567383 158.039 0.567383C157.125 0.567383 156.385 1.30739 156.385 2.22024C156.385 3.13309 157.125 3.8731 158.039 3.8731Z" fill="#DA1984"/>
<path d="M83.9709 3.8731C84.8844 3.8731 85.6247 3.13309 85.6247 2.22024C85.6247 1.30739 84.8844 0.567383 83.9709 0.567383C83.0582 0.567383 82.3179 1.30739 82.3179 2.22024C82.3179 3.13309 83.0582 3.8731 83.9709 3.8731Z" fill="#DA1984"/>
<path d="M130.433 12.7959C131.346 12.7959 132.086 12.056 132.086 11.1431C132.086 10.2303 131.346 9.49023 130.433 9.49023C129.519 9.49023 128.779 10.2303 128.779 11.1431C128.779 12.056 129.519 12.7959 130.433 12.7959Z" fill="#DA1984"/>
<path d="M111.874 12.7959C112.787 12.7959 113.527 12.056 113.527 11.1431C113.527 10.2303 112.787 9.49023 111.874 9.49023C110.961 9.49023 110.221 10.2303 110.221 11.1431C110.221 12.056 110.961 12.7959 111.874 12.7959Z" fill="#DA1984"/>
<path d="M93.3152 12.7959C94.2286 12.7959 94.9689 12.056 94.9689 11.1431C94.9689 10.2303 94.2286 9.49023 93.3152 9.49023C92.4024 9.49023 91.6621 10.2303 91.6621 11.1431C91.6621 12.056 92.4024 12.7959 93.3152 12.7959Z" fill="#DA1984"/>
<path d="M186.109 12.7959C187.022 12.7959 187.762 12.056 187.762 11.1431C187.762 10.2303 187.022 9.49023 186.109 9.49023C185.196 9.49023 184.455 10.2303 184.455 11.1431C184.455 12.056 185.196 12.7959 186.109 12.7959Z" fill="#DA1984"/>
<path d="M167.55 12.7959C168.463 12.7959 169.204 12.056 169.204 11.1431C169.204 10.2303 168.463 9.49023 167.55 9.49023C166.637 9.49023 165.897 10.2303 165.897 11.1431C165.897 12.056 166.637 12.7959 167.55 12.7959Z" fill="#DA1984"/>
<path d="M148.991 12.7959C149.905 12.7959 150.645 12.056 150.645 11.1431C150.645 10.2303 149.905 9.49023 148.991 9.49023C148.079 9.49023 147.338 10.2303 147.338 11.1431C147.338 12.056 148.079 12.7959 148.991 12.7959Z" fill="#DA1984"/>
<path d="M8.84445 3.8731C9.75787 3.8731 10.4982 3.13309 10.4982 2.22024C10.4982 1.30739 9.75787 0.567383 8.84445 0.567383C7.93171 0.567383 7.19141 1.30739 7.19141 2.22024C7.19141 3.13309 7.93171 3.8731 8.84445 3.8731Z" fill="#DA1984"/>
<path d="M64.3996 3.8731C65.3131 3.8731 66.0534 3.13309 66.0534 2.22024C66.0534 1.30739 65.3131 0.567383 64.3996 0.567383C63.4869 0.567383 62.7466 1.30739 62.7466 2.22024C62.7466 3.13309 63.4869 3.8731 64.3996 3.8731Z" fill="#DA1984"/>
<path d="M73.9396 12.7959C74.8524 12.7959 75.5927 12.056 75.5927 11.1431C75.5927 10.2303 74.8524 9.49023 73.9396 9.49023C73.0262 9.49023 72.2859 10.2303 72.2859 11.1431C72.2859 12.056 73.0262 12.7959 73.9396 12.7959Z" fill="#DA1984"/>
<path d="M1119.04 0.557639C1118.31 -0.175932 1117.14 -0.175932 1116.41 0.548354L1108.35 8.53404L1100.41 0.566925C1100.07 0.214068 1099.6 0.0190681 1099.1 0.0190681C1098.61 0.0190681 1098.13 0.214068 1097.78 0.566925L1089.81 8.54334L1081.79 0.566925C1081.44 0.223354 1080.98 0.0283538 1080.48 0.0283538C1080.48 0.0283538 1080.48 0.0283538 1080.48 0.0283538C1079.98 0.0283538 1079.5 0.232639 1079.16 0.576211L1071.28 8.54334L1063.18 0.557639C1062.82 0.214068 1062.36 0.0190681 1061.88 0.0190681C1061.87 0.0190681 1061.87 0.0190681 1061.86 0.0190681C1061.37 0.0190681 1060.89 0.223354 1060.55 0.576211L1052.75 8.53404L1044.56 0.539068C1044.2 0.195496 1043.77 0.0097824 1043.23 0.0097824C1042.74 0.0190681 1042.27 0.223354 1041.93 0.576211L1034.22 8.53404L1025.94 0.539068C1025.59 0.195496 1025.1 0.0190681 1024.61 0.0190681C1024.12 0.0283538 1023.65 0.232639 1023.3 0.594782L1015.67 8.54334L1007.31 0.539068C1006.95 0.195496 1006.51 -0.00878906 1005.98 0.0283538C1005.49 0.0376396 1005.01 0.251211 1004.68 0.604068L997.146 8.54334L988.826 0.659782C988.792 0.631925 988.778 0.604068 988.758 0.576211C988.471 0.288354 988.108 0.111925 987.739 0.0562109C987.711 0.0562109 987.691 0.0562109 987.663 0.0469252C987.581 0.0376395 987.492 0.0283538 987.41 0.0283538C987.328 0.0283538 987.246 0.0376395 987.157 0.0469252C987.13 0.0469252 987.102 0.0469252 987.088 0.0562109C986.712 0.121211 986.349 0.306925 986.076 0.604068C986.048 0.631925 986.028 0.669068 986.001 0.696928L978.077 8.54334L970.141 0.576211C969.798 0.223354 969.326 0.0283538 968.827 0.0283538C968.334 0.0283538 967.855 0.223354 967.506 0.576211L959.535 8.55265L951.523 0.576211C951.167 0.232639 950.702 0.0376395 950.209 0.0376395C950.209 0.0376395 950.209 0.0376395 950.203 0.0376395C949.71 0.0376395 949.238 0.241925 948.889 0.585496L941.007 8.55265L932.906 0.566925C932.55 0.223354 932.085 0.0283538 931.606 0.0283538C931.599 0.0283538 931.599 0.0283538 931.585 0.0283538C931.093 0.0283538 930.62 0.232639 930.278 0.585496L922.472 8.54334L914.282 0.548354C913.926 0.186211 913.495 0.000496668 912.954 0.000496668C912.462 0.0097824 911.99 0.214068 911.641 0.566925L903.936 8.5248L895.657 0.529782C895.302 0.186211 894.816 0.0097824 894.33 0.0097824C893.837 0.0190681 893.365 0.223354 893.023 0.585496L885.394 8.53404L877.026 0.529782C876.671 0.186211 876.226 -0.0180748 875.699 0.0190681C875.206 0.0283538 874.727 0.241925 874.399 0.594782L866.866 8.53404L858.409 0.529782C858.005 0.139782 857.465 -0.0180748 856.945 0.0376395C856.411 -0.0180748 855.857 0.149068 855.446 0.557639L847.386 8.54334L839.449 0.576211C839.107 0.223354 838.635 0.0283538 838.136 0.0283538C837.643 0.0283538 837.164 0.223354 836.822 0.576211L828.851 8.55265L820.839 0.576211C820.483 0.232639 820.018 0.0376395 819.525 0.0376395C819.525 0.0376395 819.525 0.0376395 819.518 0.0376395C819.026 0.0376395 818.554 0.241925 818.212 0.585496L810.323 8.55265L802.222 0.566925C801.873 0.223354 801.407 0.0283538 800.922 0.0283538C800.915 0.0283538 800.915 0.0283538 800.908 0.0283538C800.415 0.0283538 799.936 0.232639 799.594 0.585496L791.801 8.54334L783.611 0.548354C783.255 0.204782 782.811 0.0190681 782.291 0.0190681C781.798 0.0283538 781.326 0.232639 780.984 0.585496L773.273 8.54334L764.994 0.548354C764.645 0.204782 764.152 0.0283538 763.666 0.0283538C763.174 0.0376396 762.702 0.241925 762.359 0.604068L754.731 8.55265L746.363 0.548354C746.007 0.204782 745.555 0.000496666 745.035 0.0376395C744.543 0.0469252 744.07 0.260497 743.735 0.613354L736.202 8.55265L728.046 0.826927C727.992 0.743351 727.923 0.659782 727.848 0.585496C727.478 0.204782 726.979 0.0283538 726.486 0.0376395C725.994 0.0376395 725.487 0.223354 725.118 0.613354C725.043 0.696928 724.981 0.780497 724.913 0.873351L717.161 8.55265L709.224 0.585496C708.882 0.204782 708.409 0.000496668 707.917 0.000496668C707.424 0.000496668 706.952 0.195496 706.596 0.548354L698.625 8.5248L690.613 0.548354C690.257 0.195496 689.785 0.000496668 689.293 0.000496668C689.293 0.000496668 689.293 0.000496668 689.286 0.000496668C688.793 0.000496668 688.314 0.204782 687.972 0.548354L680.09 8.5155L671.989 0.529782C671.633 0.186211 671.168 -0.00878906 670.689 -0.00878906C670.675 -0.00878906 670.675 -0.00878906 670.668 -0.00878906C670.176 -0.00878906 669.704 0.195496 669.362 0.548354L661.555 8.50619L653.365 0.511211C653.009 0.186211 652.578 0.000496668 652.044 0.000496668C651.552 0.0097824 651.08 0.214068 650.737 0.566925L643.026 8.5248L634.747 0.529782C634.385 0.186211 633.906 0.000496668 633.42 0.000496668C632.927 0.0097824 632.455 0.214068 632.113 0.576211L624.484 8.5248L616.116 0.520496C615.761 0.176925 615.316 -0.0273605 614.796 0.000496668C614.303 0.0097824 613.831 0.223354 613.496 0.576211L605.963 8.5155L597.643 0.631925C597.615 0.604068 597.595 0.576211 597.574 0.548354C597.287 0.260496 596.924 0.0840678 596.555 0.0283538C596.527 0.0283538 596.507 0.0283538 596.479 0.0190681C596.397 0.0097824 596.315 0.000496668 596.226 0.000496668C596.144 0.000496668 596.062 0.0097824 595.98 0.0190681C595.953 0.0190681 595.925 0.0190681 595.905 0.0283538C595.535 0.0933539 595.173 0.279068 594.892 0.576211C594.865 0.604068 594.844 0.641211 594.817 0.669068L586.894 8.5155L578.964 0.548354C578.601 0.204782 578.136 0.000496668 577.636 0.000496668C577.144 0.000496668 576.665 0.195496 576.316 0.548354L568.345 8.5248L560.333 0.548354C559.984 0.195496 559.512 0.000496668 559.019 0.000496668C559.019 0.000496668 559.019 0.000496668 559.012 0.000496668C558.519 0.000496668 558.047 0.204782 557.698 0.548354L549.816 8.5248L541.715 0.539068C541.359 0.195496 540.894 0.000496668 540.408 0.000496668C540.395 0.000496668 540.395 0.000496668 540.388 0.000496668C539.895 0.000496668 539.423 0.204782 539.074 0.557639L531.274 8.5155L523.084 0.520496C522.735 0.186211 522.304 0.000496668 521.764 0.000496668C521.271 0.0097824 520.799 0.214068 520.45 0.566925L512.746 8.5248L504.467 0.529782C504.111 0.186211 503.632 0.000496668 503.139 0.000496668C502.647 0.0097824 502.175 0.214068 501.833 0.576211L494.204 8.5248L485.834 0.520496C485.481 0.176925 485.035 -0.0273605 484.506 0.0097824C484.014 0.0190681 483.54 0.232639 483.206 0.585496L475.673 8.5248L467.22 0.520496C466.811 0.130497 466.273 -0.0273605 465.752 0.0283538C465.223 -0.0273605 464.666 0.139782 464.257 0.548354L456.194 8.53404L448.262 0.566925C447.928 0.204782 447.454 0.000496668 446.962 0.000496668C446.469 0.000496668 445.996 0.195496 445.651 0.548354L437.682 8.5248L429.666 0.548354C429.304 0.195496 428.83 0.000496668 428.347 0.000496668C428.347 0.000496668 428.347 0.000496668 428.337 0.000496668C427.846 0.000496668 427.372 0.204782 427.028 0.548354L419.142 8.5155L411.042 0.529782C410.69 0.186211 410.225 -0.00878906 409.742 -0.00878906C409.732 -0.00878906 409.732 -0.00878906 409.724 -0.00878906C409.231 -0.00878906 408.757 0.195496 408.414 0.548354L400.621 8.50619L392.428 0.511211C392.057 0.186211 391.61 0.000496668 391.09 0.000496668C390.598 0.0097824 390.124 0.214068 389.781 0.566925L382.071 8.5248L373.795 0.529782C373.433 0.186211 372.95 0.000496668 372.467 0.000496668C371.974 0.0097824 371.501 0.214068 371.157 0.576211L363.531 8.5248L355.162 0.520496C354.809 0.176925 354.354 -0.0273605 353.834 0.0097824C353.341 0.0190681 352.868 0.232639 352.533 0.585496L345 8.5248L336.547 0.511211C336.139 0.121211 335.6 -0.0366462 335.08 0.0190681C334.551 -0.0366462 333.993 0.130496 333.585 0.539068L325.522 8.5248L317.589 0.557639C317.246 0.204782 316.772 0.000496668 316.28 0.000496668C315.788 0.000496668 315.313 0.195496 314.961 0.548354L306.991 8.5248L298.975 0.548354C298.622 0.195496 298.149 0.000496668 297.666 0.000496668C297.666 0.000496668 297.666 0.000496668 297.656 0.000496668C297.164 0.000496668 296.69 0.204782 296.346 0.548354L288.46 8.5155L280.361 0.529782C280.007 0.195496 279.534 0.000496668 279.051 0.000496668C279.041 0.000496668 279.041 0.000496668 279.032 0.000496668C278.54 0.000496668 278.066 0.204782 277.723 0.557639L269.92 8.5155L261.727 0.520496C261.374 0.186211 260.938 0.000496668 260.409 0.000496668C259.916 0.0097824 259.443 0.214068 259.099 0.566925L251.39 8.5248L243.113 0.529782C242.751 0.186211 242.268 0.000496668 241.785 0.000496668C241.293 0.0097824 240.819 0.214068 240.475 0.576211L232.849 8.5248L224.48 0.520496C224.127 0.176925 223.681 -0.0273605 223.152 0.0097824C222.66 0.0190681 222.186 0.232639 221.852 0.585496L214.318 8.5248L205.996 0.641211C205.968 0.613354 205.949 0.585496 205.931 0.557639C205.643 0.269782 205.281 0.0933539 204.909 0.0376395C204.881 0.0376395 204.863 0.0376396 204.835 0.0283538C204.751 0.0190681 204.668 0.0097824 204.584 0.0097824C204.5 0.0097824 204.417 0.0190681 204.333 0.0283538C204.305 0.0283538 204.278 0.0283538 204.259 0.0376395C203.887 0.102639 203.525 0.288354 203.247 0.585496C203.219 0.613354 203.2 0.650496 203.172 0.678354L195.249 8.5248L187.316 0.557639C186.973 0.204782 186.499 0.000496668 186.007 0.000496668C185.515 0.000496668 185.04 0.195496 184.688 0.548354L176.718 8.5248L168.702 0.548354C168.349 0.195496 167.876 0.000496668 167.383 0.000496668C167.383 0.000496668 167.383 0.000496668 167.373 0.000496668C166.881 0.000496668 166.408 0.204782 166.064 0.548354L158.178 8.5155L150.079 0.529782C149.726 0.186211 149.261 -0.00878906 148.778 -0.00878906C148.768 -0.00878906 148.768 -0.00878906 148.759 -0.00878906C148.267 -0.00878906 147.793 0.195496 147.45 0.548354L139.647 8.50619L131.454 0.511211C131.101 0.186211 130.665 0.000496668 130.136 0.000496668C129.643 0.0097824 129.17 0.214068 128.826 0.566925L121.116 8.5248L112.84 0.529782C112.478 0.186211 111.995 0.000496668 111.512 0.000496668C111.02 0.0097824 110.546 0.214068 110.202 0.576211L102.576 8.5248L94.2074 0.520496C93.8543 0.176925 93.4082 -0.0273605 92.8786 0.0097824C92.3867 0.0190681 91.9132 0.232639 91.5786 0.585496L84.0455 8.5248L75.5927 0.520496C75.1843 0.130497 74.6451 -0.0273605 74.1251 0.0283538C73.5955 -0.0273605 73.0386 0.139782 72.6294 0.548354L64.5674 8.53404L56.6346 0.566925C56.2912 0.204782 55.817 0.000496668 55.3251 0.000496668C54.8324 0.000496668 54.3589 0.195496 54.0155 0.548354L46.0458 8.5248L38.0296 0.548354C37.6676 0.195496 37.2031 0.000496668 36.7104 0.000496668C36.7104 0.000496668 36.7104 0.000496668 36.7015 0.000496668C36.2089 0.000496668 35.7354 0.204782 35.3913 0.548354L27.5057 8.5155L19.4061 0.529782C19.053 0.186211 18.5884 -0.00878906 18.1054 -0.00878906C18.0965 -0.00878906 18.0965 -0.00878906 18.0869 -0.00878906C17.5943 -0.00878906 17.1208 0.195496 16.7773 0.548354L8.98416 8.50619L0.791428 0.511211C0.419891 0.186211 -0.0261993 0.000496668 -0.546204 0.000496668C-1.03815 0.0097824 -1.5123 0.214068 -1.85577 0.566925L-9.56546 8.5248L-17.8417 0.529782C-18.1947 0.186211 -18.6867 0.000496668 -19.1697 0.000496668C-19.6624 0.0097824 -20.1358 0.214068 -20.4793 0.576211L-28.1055 8.5248L-36.4748 0.520496C-36.8272 0.176925 -37.2828 -0.0273605 -37.8028 0.0097824C-38.2948 0.0190681 -38.769 0.232639 -39.1035 0.585496L-46.636 8.5248L-54.7918 0.799066C-54.8472 0.715497 -54.9122 0.631925 -54.9868 0.557639C-55.3583 0.176925 -55.8598 0.000496668 -56.3525 0.0097824C-56.8444 0.0097824 -57.3459 0.195497 -57.7175 0.585496C-57.7921 0.669068 -57.8571 0.752643 -57.922 0.845497L-65.6783 8.5248L-73.6103 0.557639C-73.9449 0.204782 -74.4184 0.000496668 -74.911 0.000496668C-75.4029 0.000496668 -75.8771 0.195496 -76.2301 0.548354L-84.1992 8.5248L-92.2154 0.548354C-92.5684 0.195496 -93.0426 0.000496668 -93.5345 0.000496668C-93.5345 0.000496668 -93.5345 0.000496668 -93.5441 0.000496668C-94.036 0.000496668 -94.5102 0.204782 -94.8537 0.548354L-102.74 8.5155L-110.84 0.529782C-111.183 0.195496 -111.657 0.000496668 -112.14 0.000496668C-112.149 0.000496668 -112.149 0.000496668 -112.158 0.000496668C-112.651 0.000496668 -113.124 0.204782 -113.468 0.557639L-121.27 8.5155L-129.463 0.529782C-129.816 0.186211 -130.253 0.000496668 -130.782 0.000496668C-131.274 0.0097824 -131.748 0.214068 -132.092 0.566925L-139.801 8.5248L-148.077 0.529782C-148.44 0.186211 -148.923 0.000496668 -149.406 0.000496668C-149.898 0.0097824 -150.372 0.214068 -150.715 0.576211L-158.341 8.5248L-166.71 0.520496C-167.063 0.176925 -167.5 -0.0273605 -168.029 0.000496668C-168.522 0.0097824 -168.995 0.223354 -169.33 0.576211L-176.863 8.5155L-185.316 0.511211C-186.068 -0.194503 -187.238 -0.157361 -187.953 0.585496C-188.659 1.32835 -188.632 2.50764 -187.879 3.21335L-178.08 12.499C-177.337 13.2048 -176.157 13.177 -175.451 12.4248L-167.927 4.49478L-159.567 12.4898C-158.824 13.1955 -157.654 13.177 -156.939 12.434L-149.322 4.49478L-141.046 12.4898C-140.312 13.2048 -139.132 13.1862 -138.417 12.4433L-130.717 4.49478L-122.534 12.4805C-122.171 12.8333 -121.707 13.0098 -121.233 13.0098C-120.75 13.0098 -120.267 12.824 -119.905 12.4527L-112.112 4.49478L-104.012 12.4712C-103.278 13.1862 -102.108 13.1862 -101.384 12.4527L-93.5065 4.49478L-85.4998 12.462C-84.7753 13.1862 -83.5957 13.1862 -82.8711 12.462L-74.9014 4.49478L-66.9783 12.462C-66.2537 13.1862 -65.0837 13.1955 -64.3495 12.4712L-56.2779 4.4855L-47.8163 12.5083C-47.0725 13.214 -45.8929 13.1862 -45.1875 12.434L-37.6633 4.50407L-29.3036 12.499C-28.9416 12.8427 -28.4771 13.0098 -28.022 13.0098C-27.5294 13.0098 -27.0464 12.8148 -26.6844 12.434L-19.0678 4.49478L-10.7916 12.4898C-10.0574 13.2048 -8.87784 13.1862 -8.16284 12.4433L-0.462738 4.49478L7.7211 12.4805C8.45457 13.1955 9.62526 13.177 10.3492 12.4527L18.1423 4.49478L26.242 12.4712C26.9762 13.1862 28.1462 13.1862 28.8707 12.4527L36.7481 4.49478L44.7547 12.462C45.4793 13.1862 46.6588 13.1862 47.3834 12.462L55.3531 4.49478L63.2763 12.462C64.0009 13.1862 65.1709 13.1955 65.905 12.4712L74.1901 4.27193L82.8844 12.499C83.6274 13.2048 84.807 13.177 85.5131 12.4248L93.0367 4.49478L101.396 12.4898C102.139 13.1955 103.31 13.177 104.025 12.434L111.642 4.49478L119.918 12.4898C120.652 13.2048 121.832 13.1862 122.547 12.4433L130.247 4.49478L138.431 12.4805C138.793 12.8333 139.257 13.0098 139.731 13.0098C140.214 13.0098 140.697 12.824 141.059 12.4527L148.852 4.49478L156.952 12.4712C157.686 13.1862 158.856 13.1862 159.58 12.4527L167.458 4.49478L175.464 12.462C176.189 13.1862 177.368 13.1862 178.093 12.462L186.063 4.49478L193.986 12.462C194.71 13.1862 195.88 13.1955 196.615 12.4712L204.705 4.46693L213.185 12.5083C213.928 13.214 215.108 13.1862 215.814 12.434L223.338 4.50407L231.697 12.499C232.44 13.2048 233.611 13.1862 234.326 12.4433L241.943 4.50407L250.219 12.499C250.952 13.214 252.133 13.1955 252.848 12.4527L260.548 4.50407L268.731 12.4898C269.094 12.8426 269.558 13.019 270.032 13.019C270.515 13.019 270.998 12.8333 271.36 12.462L279.153 4.50407L287.253 12.4805C287.987 13.1955 289.157 13.1955 289.881 12.462L297.758 4.50407L305.765 12.4712C306.49 13.1955 307.669 13.1955 308.394 12.4712L316.363 4.50407L324.287 12.4712C325.011 13.1955 326.181 13.2048 326.916 12.4805L335.201 4.28121L343.895 12.5177C344.638 13.2233 345.818 13.1955 346.524 12.4433L354.047 4.51335L362.407 12.5083C362.77 12.852 363.233 13.019 363.689 13.019C364.181 13.019 364.664 12.824 365.027 12.4433L372.643 4.50407L380.919 12.499C381.653 13.214 382.833 13.1955 383.548 12.4527L391.248 4.50407L399.432 12.4898C400.165 13.2048 401.336 13.1862 402.06 12.462L409.854 4.50407L417.953 12.4805C418.687 13.1955 419.857 13.1955 420.582 12.462L428.459 4.50407L436.465 12.4712C437.19 13.1955 438.369 13.1955 439.094 12.4712L447.064 4.50407L454.987 12.4712C455.711 13.1955 456.882 13.2048 457.616 12.4805L465.901 4.28121L474.595 12.5083C475.338 13.214 476.518 13.1862 477.224 12.434L484.748 4.50407L493.108 12.499C493.851 13.2048 495.021 13.1862 495.736 12.4433L503.352 4.50407L511.631 12.499C512.363 13.214 513.539 13.1955 514.258 12.4527L521.955 4.50407L530.138 12.4898C530.501 12.8426 530.966 13.019 531.438 13.019C531.924 13.019 532.41 12.8333 532.773 12.462L540.566 4.50407L548.66 12.4805C549.399 13.1955 550.569 13.1955 551.294 12.462L559.169 4.50407L567.175 12.4712C567.9 13.1955 569.077 13.1955 569.802 12.4712L577.773 4.50407L585.696 12.4712C586.422 13.1955 587.592 13.2048 588.324 12.4805L596.418 4.47621L604.895 12.5177C605.641 13.2233 606.818 13.1955 607.523 12.4433L615.049 4.51335L623.41 12.5083C624.149 13.214 625.319 13.1955 626.037 12.4527L633.653 4.51335L641.932 12.5083C642.664 13.2233 643.841 13.2048 644.559 12.462L652.256 4.51335L660.439 12.499C660.802 12.852 661.267 13.0283 661.74 13.0283C662.225 13.0283 662.711 12.8426 663.074 12.4712L670.867 4.51335L678.961 12.4898C679.7 13.2048 680.87 13.2048 681.595 12.4712L689.471 4.51335L697.476 12.4805C698.201 13.2048 699.378 13.2048 700.103 12.4805L708.074 4.51335L715.997 12.4805C716.723 13.2048 717.893 13.214 718.625 12.4898L726.698 4.50407L735.162 12.527C735.901 13.2326 737.085 13.2048 737.789 12.4527L745.309 4.52264L753.67 12.5177C754.033 12.8612 754.498 13.0283 754.956 13.0283C755.449 13.0283 755.928 12.8333 756.291 12.4527L763.906 4.51335L772.185 12.5083C772.917 13.2233 774.101 13.2048 774.812 12.462L782.516 4.51335L790.699 12.499C791.432 13.214 792.602 13.1955 793.327 12.4712L801.12 4.51335L809.221 12.4898C809.953 13.2048 811.123 13.2048 811.848 12.4712L819.724 4.51335L827.729 12.4805C828.454 13.2048 829.631 13.2048 830.356 12.4805L838.327 4.51335L846.251 12.4805C846.976 13.2048 848.146 13.214 848.878 12.4898L857.164 4.2905L865.86 12.5177C866.606 13.2233 867.783 13.1955 868.487 12.4433L876.014 4.51335L884.375 12.5083C885.114 13.214 886.284 13.1955 887.002 12.4527L894.617 4.51335L902.896 12.5083C903.629 13.2233 904.805 13.2048 905.524 12.462L913.221 4.51335L921.404 12.499C921.767 12.852 922.232 13.0283 922.704 13.0283C923.19 13.0283 923.676 12.8426 924.032 12.4712L931.825 4.51335L939.926 12.4898C940.665 13.2048 941.835 13.2048 942.553 12.4712L950.435 4.51335L958.441 12.4805C959.166 13.2048 960.343 13.2048 961.068 12.4805L969.039 4.51335L976.962 12.4805C977.687 13.2048 978.857 13.214 979.589 12.4898L987.684 4.4855L996.161 12.527C996.907 13.2326 998.084 13.2048 998.788 12.4527L1006.31 4.52264L1014.68 12.5177C1015.41 13.2233 1016.58 13.2048 1017.3 12.462L1024.92 4.52264L1033.2 12.5177C1033.93 13.2327 1035.11 13.214 1035.82 12.4712L1043.52 4.52264L1051.71 12.5083C1052.07 12.8612 1052.53 13.0376 1053.01 13.0376C1053.49 13.0376 1053.97 12.852 1054.33 12.4805L1062.13 4.52264L1070.23 12.499C1070.96 13.214 1072.14 13.214 1072.85 12.4805L1080.74 4.52264L1088.74 12.4898C1089.47 13.214 1090.64 13.214 1091.37 12.4898L1099.34 4.52264L1107.26 12.4898C1107.99 13.214 1109.16 13.2233 1109.89 12.499L1119.27 3.21335C1119.76 2.46121 1119.76 1.28193 1119.04 0.557639Z" fill="#FFD100"/>
<path d="M269.8 3.8731C270.712 3.8731 271.453 3.13309 271.453 2.22024C271.453 1.30739 270.712 0.567383 269.8 0.567383C268.886 0.567383 268.146 1.30739 268.146 2.22024C268.146 3.13309 268.886 3.8731 269.8 3.8731Z" fill="#DA1984"/>
<path d="M251.278 3.8731C252.191 3.8731 252.931 3.13309 252.931 2.22024C252.931 1.30739 252.191 0.567383 251.278 0.567383C250.365 0.567383 249.625 1.30739 249.625 2.22024C249.625 3.13309 250.365 3.8731 251.278 3.8731Z" fill="#DA1984"/>
<path d="M232.765 3.8731C233.679 3.8731 234.419 3.13309 234.419 2.22024C234.419 1.30739 233.679 0.567383 232.765 0.567383C231.853 0.567383 231.112 1.30739 231.112 2.22024C231.112 3.13309 231.853 3.8731 232.765 3.8731Z" fill="#DA1984"/>
<path d="M325.355 3.8731C326.268 3.8731 327.008 3.13309 327.008 2.22024C327.008 1.30739 326.268 0.567383 325.355 0.567383C324.441 0.567383 323.701 1.30739 323.701 2.22024C323.701 3.13309 324.441 3.8731 325.355 3.8731Z" fill="#DA1984"/>
<path d="M306.833 3.8731C307.746 3.8731 308.486 3.13309 308.486 2.22024C308.486 1.30739 307.746 0.567383 306.833 0.567383C305.92 0.567383 305.18 1.30739 305.18 2.22024C305.18 3.13309 305.92 3.8731 306.833 3.8731Z" fill="#DA1984"/>
<path d="M288.321 3.8731C289.234 3.8731 289.974 3.13309 289.974 2.22024C289.974 1.30739 289.234 0.567383 288.321 0.567383C287.408 0.567383 286.667 1.30739 286.667 2.22024C286.667 3.13309 287.408 3.8731 288.321 3.8731Z" fill="#DA1984"/>
<path d="M214.244 3.8731C215.157 3.8731 215.898 3.13309 215.898 2.22024C215.898 1.30739 215.157 0.567383 214.244 0.567383C213.331 0.567383 212.591 1.30739 212.591 2.22024C212.591 3.13309 213.331 3.8731 214.244 3.8731Z" fill="#DA1984"/>
<path d="M260.706 12.7959C261.619 12.7959 262.359 12.056 262.359 11.1431C262.359 10.2303 261.619 9.49023 260.706 9.49023C259.793 9.49023 259.052 10.2303 259.052 11.1431C259.052 12.056 259.793 12.7959 260.706 12.7959Z" fill="#DA1984"/>
<path d="M242.147 12.7959C243.06 12.7959 243.8 12.056 243.8 11.1431C243.8 10.2303 243.06 9.49023 242.147 9.49023C241.234 9.49023 240.494 10.2303 240.494 11.1431C240.494 12.056 241.234 12.7959 242.147 12.7959Z" fill="#DA1984"/>
<path d="M223.588 12.7959C224.502 12.7959 225.242 12.056 225.242 11.1431C225.242 10.2303 224.502 9.49023 223.588 9.49023C222.675 9.49023 221.935 10.2303 221.935 11.1431C221.935 12.056 222.675 12.7959 223.588 12.7959Z" fill="#DA1984"/>
<path d="M316.391 12.7959C317.305 12.7959 318.045 12.056 318.045 11.1431C318.045 10.2303 317.305 9.49023 316.391 9.49023C315.478 9.49023 314.738 10.2303 314.738 11.1431C314.738 12.056 315.478 12.7959 316.391 12.7959Z" fill="#DA1984"/>
<path d="M297.833 12.7959C298.746 12.7959 299.486 12.056 299.486 11.1431C299.486 10.2303 298.746 9.49023 297.833 9.49023C296.919 9.49023 296.179 10.2303 296.179 11.1431C296.179 12.056 296.919 12.7959 297.833 12.7959Z" fill="#DA1984"/>
<path d="M279.264 12.7959C280.178 12.7959 280.918 12.056 280.918 11.1431C280.918 10.2303 280.178 9.49023 279.264 9.49023C278.352 9.49023 277.611 10.2303 277.611 11.1431C277.611 12.056 278.352 12.7959 279.264 12.7959Z" fill="#DA1984"/>
<path d="M204.213 12.7959C205.125 12.7959 205.866 12.056 205.866 11.1431C205.866 10.2303 205.125 9.49023 204.213 9.49023C203.299 9.49023 202.559 10.2303 202.559 11.1431C202.559 12.056 203.299 12.7959 204.213 12.7959Z" fill="#DA1984"/>
<path d="M45.8781 3.8731C46.7916 3.8731 47.5319 3.13309 47.5319 2.22024C47.5319 1.30739 46.7916 0.567383 45.8781 0.567383C44.9654 0.567383 44.2251 1.30739 44.2251 2.22024C44.2251 3.13309 44.9654 3.8731 45.8781 3.8731Z" fill="#DA1984"/>
<path d="M27.3662 3.8731C28.2796 3.8731 29.0199 3.13309 29.0199 2.22024C29.0199 1.30739 28.2796 0.567383 27.3662 0.567383C26.4528 0.567383 25.7131 1.30739 25.7131 2.22024C25.7131 3.13309 26.4528 3.8731 27.3662 3.8731Z" fill="#DA1984"/>
<path d="M-0.248591 12.7959C0.664145 12.7959 1.40445 12.056 1.40445 11.1431C1.40445 10.2303 0.664145 9.49023 -0.248591 9.49023C-1.16201 9.49023 -1.90234 10.2303 -1.90234 11.1431C-1.90234 12.056 -1.16201 12.7959 -0.248591 12.7959Z" fill="#DA1984"/>
<path d="M55.4364 12.7959C56.3492 12.7959 57.0895 12.056 57.0895 11.1431C57.0895 10.2303 56.3492 9.49023 55.4364 9.49023C54.523 9.49023 53.7827 10.2303 53.7827 11.1431C53.7827 12.056 54.523 12.7959 55.4364 12.7959Z" fill="#DA1984"/>
<path d="M36.8781 12.7959C37.7908 12.7959 38.5311 12.056 38.5311 11.1431C38.5311 10.2303 37.7908 9.49023 36.8781 9.49023C35.9647 9.49023 35.2244 10.2303 35.2244 11.1431C35.2244 12.056 35.9647 12.7959 36.8781 12.7959Z" fill="#DA1984"/>
<path d="M18.3188 12.7959C19.2323 12.7959 19.9726 12.056 19.9726 11.1431C19.9726 10.2303 19.2323 9.49023 18.3188 9.49023C17.4061 9.49023 16.6658 10.2303 16.6658 11.1431C16.6658 12.056 17.4061 12.7959 18.3188 12.7959Z" fill="#DA1984"/>
</g>
</g>
<defs>
<clipPath id="clip0_193_5791">
<rect width="985.263" height="13" fill="white" transform="translate(-188.632)"/>
</clipPath>
</defs>
</svg>
