<svg width="242" height="96" viewBox="0 0 242 96" fill="none" xmlns="http://www.w3.org/2000/svg">
<rect x="1.5" y="1.5" width="239" height="93" rx="13.5" fill="#FEFEFE"/>
<g clip-path="url(#clip0_369_4116)">
<path d="M83 13H13V83H83V13Z" fill="white"/>
<path d="M19.825 17.375C18.4719 17.375 17.375 18.4719 17.375 19.825H19.825V17.375Z" fill="#429463"/>
<path d="M22.275 17.375H19.825V19.825H22.275V17.375Z" fill="#429463"/>
<path d="M24.725 17.375H22.275V19.825H24.725V17.375Z" fill="#429463"/>
<path d="M27.175 17.375H24.725V19.825H27.175V17.375Z" fill="#429463"/>
<path d="M29.625 17.375H27.175V19.825H29.625V17.375Z" fill="#429463"/>
<path d="M32.075 17.375H29.625V19.825H32.075V17.375Z" fill="#429463"/>
<path d="M34.525 19.825C34.525 18.4719 33.4281 17.375 32.075 17.375V19.825H34.525Z" fill="#429463"/>
<path d="M39.425 18.6C39.425 17.9235 38.8765 17.375 38.2 17.375C37.5234 17.375 36.975 17.9235 36.975 18.6C36.975 19.2765 37.5234 19.825 38.2 19.825C38.8765 19.825 39.425 19.2765 39.425 18.6Z" fill="#429463"/>
<path d="M46.775 18.6C46.775 17.9235 46.2265 17.375 45.55 17.375C44.8734 17.375 44.325 17.9235 44.325 18.6V19.825H46.775V18.6Z" fill="#429463"/>
<path d="M54.125 18.6C54.125 17.9235 53.5765 17.375 52.9 17.375C52.2234 17.375 51.675 17.9235 51.675 18.6V19.825H54.125V18.6Z" fill="#429463"/>
<path d="M59.025 18.6C59.025 17.9235 58.4765 17.375 57.8 17.375C57.1234 17.375 56.575 17.9235 56.575 18.6V19.825H59.025V18.6Z" fill="#429463"/>
<path d="M63.925 17.375C62.5719 17.375 61.475 18.4719 61.475 19.825H63.925V17.375Z" fill="#429463"/>
<path d="M66.375 17.375H63.925V19.825H66.375V17.375Z" fill="#429463"/>
<path d="M68.825 17.375H66.375V19.825H68.825V17.375Z" fill="#429463"/>
<path d="M71.275 17.375H68.825V19.825H71.275V17.375Z" fill="#429463"/>
<path d="M73.725 17.375H71.275V19.825H73.725V17.375Z" fill="#429463"/>
<path d="M76.175 17.375H73.725V19.825H76.175V17.375Z" fill="#429463"/>
<path d="M78.625 19.825C78.625 18.4719 77.5281 17.375 76.175 17.375V19.825H78.625Z" fill="#429463"/>
<path d="M19.825 19.825H17.375V22.275H19.825V19.825Z" fill="#429463"/>
<path d="M34.525 19.825H32.075L32.075 22.275H34.525V19.825Z" fill="#429463"/>
<path d="M44.325 19.825C42.9719 19.825 41.875 20.9219 41.875 22.275H44.325V19.825Z" fill="#429463"/>
<path d="M46.775 19.825H44.325V22.275H46.775V19.825Z" fill="#429463"/>
<path d="M49.225 19.825H46.775V22.275H49.225V19.825Z" fill="#429463"/>
<path d="M51.675 19.825H49.225V22.275H51.675V19.825Z" fill="#429463"/>
<path d="M54.125 19.825H51.675V22.275H54.125V19.825Z" fill="#429463"/>
<path d="M59.025 19.825H56.575V22.275H59.025V19.825Z" fill="#429463"/>
<path d="M63.925 19.825H61.475V22.275H63.925V19.825Z" fill="#429463"/>
<path d="M78.625 19.825H76.175V22.275H78.625V19.825Z" fill="#429463"/>
<path d="M19.825 22.275H17.375V24.725H19.825V22.275Z" fill="#429463"/>
<path d="M24.725 22.275C23.3719 22.275 22.275 23.3719 22.275 24.725H24.725V22.275Z" fill="#429463"/>
<path d="M27.175 22.275H24.725V24.725H27.175V22.275Z" fill="#429463"/>
<path d="M29.625 24.725C29.625 23.3719 28.5281 22.275 27.175 22.275V24.725H29.625Z" fill="#429463"/>
<path d="M34.525 22.275H32.075V24.725H34.525V22.275Z" fill="#429463"/>
<path d="M39.425 23.5C39.425 22.8235 38.8765 22.275 38.2 22.275C37.5234 22.275 36.975 22.8235 36.975 23.5C36.975 24.1765 37.5234 24.725 38.2 24.725C38.8765 24.725 39.425 24.1765 39.425 23.5Z" fill="#429463"/>
<path d="M44.325 22.275H41.875C41.875 23.6281 42.9719 24.725 44.325 24.725V22.275Z" fill="#429463"/>
<path d="M46.775 22.275H44.325V24.725H46.775V22.275Z" fill="#429463"/>
<path d="M49.225 22.275H46.775V24.725H49.225V22.275Z" fill="#429463"/>
<path d="M56.575 22.275H54.125L54.125 24.725H56.575V22.275Z" fill="#429463"/>
<path d="M59.025 22.275H56.575V24.725H59.025V22.275Z" fill="#429463"/>
<path d="M63.925 22.275H61.475V24.725H63.925V22.275Z" fill="#429463"/>
<path d="M68.825 22.275C67.4719 22.275 66.375 23.3719 66.375 24.725H68.825V22.275Z" fill="#429463"/>
<path d="M71.275 22.275H68.825V24.725H71.275V22.275Z" fill="#429463"/>
<path d="M73.725 24.725C73.725 23.3719 72.6281 22.275 71.275 22.275V24.725H73.725Z" fill="#429463"/>
<path d="M78.625 22.275H76.175V24.725H78.625V22.275Z" fill="#429463"/>
<path d="M19.825 24.725H17.375V27.175H19.825V24.725Z" fill="#429463"/>
<path d="M24.725 24.725H22.275V27.175H24.725V24.725Z" fill="#429463"/>
<path d="M27.175 24.725H24.725V27.175H27.175V24.725Z" fill="#429463"/>
<path d="M29.625 24.725H27.175V27.175H29.625V24.725Z" fill="#429463"/>
<path d="M34.525 24.725H32.075V27.175H34.525V24.725Z" fill="#429463"/>
<path d="M46.775 24.725H44.325V27.175C45.6781 27.175 46.775 26.0781 46.775 24.725Z" fill="#429463"/>
<path d="M51.675 24.725H49.225V27.175H51.675V24.725Z" fill="#429463"/>
<path d="M54.125 24.725H51.675V27.175H54.125L54.125 24.725Z" fill="#429463"/>
<path d="M59.025 24.725H56.575V27.175H59.025V24.725Z" fill="#429463"/>
<path d="M63.925 24.725H61.475V27.175H63.925V24.725Z" fill="#429463"/>
<path d="M68.825 24.725H66.375V27.175H68.825V24.725Z" fill="#429463"/>
<path d="M71.275 24.725H68.825V27.175H71.275V24.725Z" fill="#429463"/>
<path d="M73.725 24.725H71.275V27.175H73.725V24.725Z" fill="#429463"/>
<path d="M78.625 24.725H76.175V27.175H78.625V24.725Z" fill="#429463"/>
<path d="M19.825 27.175H17.375V29.625H19.825V27.175Z" fill="#429463"/>
<path d="M24.725 27.175H22.275C22.275 28.5281 23.3719 29.625 24.725 29.625V27.175Z" fill="#429463"/>
<path d="M27.175 27.175H24.725V29.625H27.175V27.175Z" fill="#429463"/>
<path d="M29.625 27.175H27.175V29.625C28.5281 29.625 29.625 28.5281 29.625 27.175Z" fill="#429463"/>
<path d="M34.525 27.175H32.075V29.625H34.525V27.175Z" fill="#429463"/>
<path d="M41.875 27.175C40.5219 27.175 39.425 28.2719 39.425 29.625H41.875V27.175Z" fill="#429463"/>
<path d="M44.325 27.175H41.875V29.625H44.325V27.175Z" fill="#429463"/>
<path d="M51.675 27.175H49.225C49.225 28.5281 50.3219 29.625 51.675 29.625V27.175Z" fill="#429463"/>
<path d="M56.575 27.175H54.125L54.125 29.625H56.575V27.175Z" fill="#429463"/>
<path d="M59.025 27.175H56.575V29.625C57.9281 29.625 59.025 28.5281 59.025 27.175Z" fill="#429463"/>
<path d="M63.925 27.175H61.475V29.625H63.925V27.175Z" fill="#429463"/>
<path d="M68.825 27.175H66.375C66.375 28.5281 67.4719 29.625 68.825 29.625V27.175Z" fill="#429463"/>
<path d="M71.275 27.175H68.825V29.625H71.275V27.175Z" fill="#429463"/>
<path d="M73.725 27.175H71.275V29.625C72.6281 29.625 73.725 28.5281 73.725 27.175Z" fill="#429463"/>
<path d="M78.625 27.175H76.175V29.625H78.625V27.175Z" fill="#429463"/>
<path d="M19.825 29.625H17.375V32.075H19.825V29.625Z" fill="#429463"/>
<path d="M34.525 29.625H32.075V32.075H34.525V29.625Z" fill="#429463"/>
<path d="M41.875 29.625H39.425V32.075H41.875V29.625Z" fill="#429463"/>
<path d="M44.325 29.625H41.875V32.075H44.325V29.625Z" fill="#429463"/>
<path d="M46.775 32.075C46.775 30.7219 45.6781 29.625 44.325 29.625V32.075H46.775Z" fill="#429463"/>
<path d="M54.125 29.625H51.675V32.075H54.125L54.125 29.625Z" fill="#429463"/>
<path d="M63.925 29.625H61.475V32.075H63.925V29.625Z" fill="#429463"/>
<path d="M78.625 29.625H76.175V32.075H78.625V29.625Z" fill="#429463"/>
<path d="M19.825 32.075H17.375C17.375 33.4281 18.4719 34.525 19.825 34.525V32.075Z" fill="#429463"/>
<path d="M22.275 32.075L19.825 32.075V34.525H22.275V32.075Z" fill="#429463"/>
<path d="M24.725 32.075H22.275V34.525H24.725V32.075Z" fill="#429463"/>
<path d="M27.175 32.075H24.725V34.525H27.175V32.075Z" fill="#429463"/>
<path d="M29.625 32.075H27.175V34.525H29.625V32.075Z" fill="#429463"/>
<path d="M32.075 32.075L29.625 32.075V34.525H32.075L32.075 32.075Z" fill="#429463"/>
<path d="M34.525 32.075H32.075L32.075 34.525C33.4281 34.525 34.525 33.4281 34.525 32.075Z" fill="#429463"/>
<path d="M39.425 32.075C38.0719 32.075 36.975 33.1719 36.975 34.525H39.425V32.075Z" fill="#429463"/>
<path d="M44.325 32.075H41.875V34.525H44.325V32.075Z" fill="#429463"/>
<path d="M49.225 34.525C49.225 33.1719 48.1281 32.075 46.775 32.075V34.525H49.225Z" fill="#429463"/>
<path d="M54.125 32.075H51.675V34.525H54.125V32.075Z" fill="#429463"/>
<path d="M59.025 33.3C59.025 32.6234 58.4765 32.075 57.8 32.075C57.1234 32.075 56.575 32.6235 56.575 33.3V34.525H57.8C58.4765 34.525 59.025 33.9765 59.025 33.3Z" fill="#429463"/>
<path d="M63.925 32.075H61.475C61.475 33.4281 62.5719 34.525 63.925 34.525V32.075Z" fill="#429463"/>
<path d="M66.375 32.075L63.925 32.075V34.525H66.375V32.075Z" fill="#429463"/>
<path d="M68.825 32.075H66.375V34.525H68.825V32.075Z" fill="#429463"/>
<path d="M71.275 32.075H68.825V34.525H71.275V32.075Z" fill="#429463"/>
<path d="M73.725 32.075H71.275V34.525H73.725V32.075Z" fill="#429463"/>
<path d="M76.175 32.075L73.725 32.075V34.525H76.175V32.075Z" fill="#429463"/>
<path d="M78.625 32.075H76.175V34.525C77.5281 34.525 78.625 33.4281 78.625 32.075Z" fill="#429463"/>
<path d="M39.425 34.525H36.975C36.975 35.8781 38.0719 36.975 39.425 36.975V34.525Z" fill="#429463"/>
<path d="M41.875 34.525H39.425V36.975H41.875V34.525Z" fill="#429463"/>
<path d="M46.775 34.525H44.325V36.975H46.775V34.525Z" fill="#429463"/>
<path d="M51.675 34.525H49.225V36.975H51.675V34.525Z" fill="#429463"/>
<path d="M54.125 34.525H51.675V36.975H54.125V34.525Z" fill="#429463"/>
<path d="M56.575 34.525H54.125V36.975H56.575V34.525Z" fill="#429463"/>
<path d="M19.825 38.2C19.825 37.5234 19.2765 36.975 18.6 36.975C17.9235 36.975 17.375 37.5234 17.375 38.2C17.375 38.8765 17.9235 39.425 18.6 39.425C19.2765 39.425 19.825 38.8765 19.825 38.2Z" fill="#429463"/>
<path d="M24.725 38.2C24.725 37.5234 24.1765 36.975 23.5 36.975C22.8235 36.975 22.275 37.5234 22.275 38.2C22.275 38.8765 22.8235 39.425 23.5 39.425C24.1765 39.425 24.725 38.8765 24.725 38.2Z" fill="#429463"/>
<path d="M32.075 36.975H30.85C30.1735 36.975 29.625 37.5234 29.625 38.2C29.625 38.8765 30.1735 39.425 30.85 39.425H32.075V36.975Z" fill="#429463"/>
<path d="M34.525 39.425C34.525 38.0719 33.4281 36.975 32.075 36.975V39.425H34.525Z" fill="#429463"/>
<path d="M41.875 36.975H39.425V39.425H41.875V36.975Z" fill="#429463"/>
<path d="M46.775 36.975H44.325V39.425H46.775V36.975Z" fill="#429463"/>
<path d="M49.225 36.975H46.775V39.425H49.225V36.975Z" fill="#429463"/>
<path d="M51.675 36.975H49.225V39.425C50.5781 39.425 51.675 38.3281 51.675 36.975Z" fill="#429463"/>
<path d="M56.575 36.975H54.125L54.125 39.425H56.575V36.975Z" fill="#429463"/>
<path d="M59.025 36.975H56.575V39.425H59.025V36.975Z" fill="#429463"/>
<path d="M61.475 36.975H59.025V39.425H61.475V36.975Z" fill="#429463"/>
<path d="M63.925 39.425C63.925 38.0719 62.8281 36.975 61.475 36.975V39.425H63.925Z" fill="#429463"/>
<path d="M73.725 38.2C73.725 37.5234 73.1765 36.975 72.5 36.975C71.8235 36.975 71.275 37.5234 71.275 38.2V39.425H73.725V38.2Z" fill="#429463"/>
<path d="M78.625 38.2C78.625 37.5234 78.0765 36.975 77.4 36.975C76.7234 36.975 76.175 37.5235 76.175 38.2V39.425H77.4C78.0765 39.425 78.625 38.8765 78.625 38.2Z" fill="#429463"/>
<path d="M36.975 41.875C36.975 40.5219 35.8781 39.425 34.525 39.425V41.875H36.975Z" fill="#429463"/>
<path d="M41.875 39.425H39.425V41.875H41.875V39.425Z" fill="#429463"/>
<path d="M44.325 39.425H41.875V41.875H44.325V39.425Z" fill="#429463"/>
<path d="M56.575 39.425H54.125V41.875H56.575V39.425Z" fill="#429463"/>
<path d="M59.025 39.425H56.575V41.875C57.9281 41.875 59.025 40.7781 59.025 39.425Z" fill="#429463"/>
<path d="M63.925 39.425H61.475V41.875H63.925V39.425Z" fill="#429463"/>
<path d="M71.275 39.425C69.9219 39.425 68.825 40.5219 68.825 41.875H71.275V39.425Z" fill="#429463"/>
<path d="M76.175 39.425H73.725V41.875H76.175V39.425Z" fill="#429463"/>
<path d="M22.275 43.1C22.275 42.4235 21.7265 41.875 21.05 41.875C20.3735 41.875 19.825 42.4235 19.825 43.1V44.325H21.05C21.7265 44.325 22.275 43.7765 22.275 43.1Z" fill="#429463"/>
<path d="M32.075 41.875C30.7219 41.875 29.625 42.9719 29.625 44.325H32.075V41.875Z" fill="#429463"/>
<path d="M34.525 41.875H32.075V44.325H34.525V41.875Z" fill="#429463"/>
<path d="M39.425 41.875H36.975V44.325H39.425V41.875Z" fill="#429463"/>
<path d="M44.325 41.875H41.875V43.1C41.875 43.7765 42.4235 44.325 43.1 44.325C43.7765 44.325 44.325 43.7765 44.325 43.1V41.875Z" fill="#429463"/>
<path d="M49.225 41.875H48C47.3234 41.875 46.775 42.4235 46.775 43.1C46.775 43.7765 47.3234 44.325 48 44.325H49.225V41.875Z" fill="#429463"/>
<path d="M51.675 41.875H49.225V44.325H51.675V41.875Z" fill="#429463"/>
<path d="M54.125 41.875H51.675V44.325H54.125L54.125 41.875Z" fill="#429463"/>
<path d="M63.925 41.875H61.475C61.475 43.2281 62.5719 44.325 63.925 44.325V41.875Z" fill="#429463"/>
<path d="M66.375 44.325C66.375 42.9719 65.2781 41.875 63.925 41.875V44.325H66.375Z" fill="#429463"/>
<path d="M71.275 41.875H68.825C68.825 43.2281 69.9219 44.325 71.275 44.325V41.875Z" fill="#429463"/>
<path d="M73.725 41.875H71.275V44.325H73.725V41.875Z" fill="#429463"/>
<path d="M76.175 41.875H73.725V44.325H76.175V41.875Z" fill="#429463"/>
<path d="M19.825 44.325C18.4719 44.325 17.375 45.4219 17.375 46.775H19.825V44.325Z" fill="#429463"/>
<path d="M27.175 44.325H25.95C25.2735 44.325 24.725 44.8734 24.725 45.55C24.725 46.2265 25.2735 46.775 25.95 46.775H27.175V44.325Z" fill="#429463"/>
<path d="M29.625 44.325H27.175V46.775H29.625V44.325Z" fill="#429463"/>
<path d="M36.975 44.325H34.525V46.775H36.975V44.325Z" fill="#429463"/>
<path d="M39.425 44.325H36.975V46.775H39.425V44.325Z" fill="#429463"/>
<path d="M54.125 44.325H51.675V45.55C51.675 46.2265 52.2234 46.775 52.9 46.775C53.5765 46.775 54.125 46.2265 54.125 45.55V44.325Z" fill="#429463"/>
<path d="M59.025 45.55C59.025 44.8734 58.4765 44.325 57.8 44.325C57.1234 44.325 56.575 44.8734 56.575 45.55V46.775H59.025V45.55Z" fill="#429463"/>
<path d="M66.375 44.325H63.925V46.775H66.375V44.325Z" fill="#429463"/>
<path d="M73.725 44.325H71.275V45.55C71.275 46.2265 71.8235 46.775 72.5 46.775C73.1765 46.775 73.725 46.2265 73.725 45.55V44.325Z" fill="#429463"/>
<path d="M78.625 46.775C78.625 45.4219 77.5281 44.325 76.175 44.325V46.775H78.625Z" fill="#429463"/>
<path d="M19.825 46.775H17.375V49.225H19.825V46.775Z" fill="#429463"/>
<path d="M29.625 46.775H27.175C27.175 48.1281 28.2719 49.225 29.625 49.225V46.775Z" fill="#429463"/>
<path d="M32.075 46.775H29.625V49.225H32.075V46.775Z" fill="#429463"/>
<path d="M34.525 46.775H32.075V49.225H34.525V46.775Z" fill="#429463"/>
<path d="M41.875 49.225C41.875 47.8719 40.7781 46.775 39.425 46.775V49.225H41.875Z" fill="#429463"/>
<path d="M59.025 46.775H56.575V49.225H59.025V46.775Z" fill="#429463"/>
<path d="M61.475 46.775H59.025V49.225H61.475V46.775Z" fill="#429463"/>
<path d="M63.925 46.775H61.475V49.225H63.925V46.775Z" fill="#429463"/>
<path d="M66.375 46.775H63.925V49.225H66.375V46.775Z" fill="#429463"/>
<path d="M78.625 46.775H76.175V49.225H78.625V46.775Z" fill="#429463"/>
<path d="M19.825 49.225H17.375V51.675H19.825V49.225Z" fill="#429463"/>
<path d="M24.725 50.45C24.725 49.7734 24.1765 49.225 23.5 49.225C22.8235 49.225 22.275 49.7734 22.275 50.45C22.275 51.1265 22.8235 51.675 23.5 51.675C24.1765 51.675 24.725 51.1265 24.725 50.45Z" fill="#429463"/>
<path d="M32.075 49.225H29.625V51.675H32.075V49.225Z" fill="#429463"/>
<path d="M36.975 49.225H34.525V51.675H36.975V49.225Z" fill="#429463"/>
<path d="M39.425 49.225H36.975V51.675C38.3281 51.675 39.425 50.5781 39.425 49.225Z" fill="#429463"/>
<path d="M44.325 51.675C44.325 50.3219 43.2281 49.225 41.875 49.225V51.675H44.325Z" fill="#429463"/>
<path d="M49.225 49.225C47.8719 49.225 46.775 50.3219 46.775 51.675H49.225V49.225Z" fill="#429463"/>
<path d="M51.675 51.675C51.675 50.3219 50.5781 49.225 49.225 49.225V51.675H51.675Z" fill="#429463"/>
<path d="M56.575 49.225H55.35C54.6735 49.225 54.125 49.7734 54.125 50.45C54.125 51.1265 54.6735 51.675 55.35 51.675H56.575V49.225Z" fill="#429463"/>
<path d="M59.025 49.225H56.575V51.675C57.9281 51.675 59.025 50.5781 59.025 49.225Z" fill="#429463"/>
<path d="M63.925 49.225H61.475V51.675H63.925V49.225Z" fill="#429463"/>
<path d="M68.825 49.225H66.375V51.675H68.825V49.225Z" fill="#429463"/>
<path d="M71.275 51.675C71.275 50.3219 70.1781 49.225 68.825 49.225V51.675H71.275Z" fill="#429463"/>
<path d="M76.175 49.225H74.95C74.2734 49.225 73.725 49.7734 73.725 50.45C73.725 51.1265 74.2734 51.675 74.95 51.675H76.175V49.225Z" fill="#429463"/>
<path d="M78.625 49.225H76.175V51.675C77.5281 51.675 78.625 50.5781 78.625 49.225Z" fill="#429463"/>
<path d="M19.825 51.675H17.375V54.125H19.825V51.675Z" fill="#429463"/>
<path d="M32.075 51.675H29.625V54.125H32.075V51.675Z" fill="#429463"/>
<path d="M34.525 51.675H32.075V54.125C33.4281 54.125 34.525 53.0281 34.525 51.675Z" fill="#429463"/>
<path d="M44.325 51.675H41.875V54.125H44.325V51.675Z" fill="#429463"/>
<path d="M46.775 51.675H44.325V54.125H46.775V51.675Z" fill="#429463"/>
<path d="M49.225 51.675H46.775V54.125H49.225V51.675Z" fill="#429463"/>
<path d="M51.675 51.675H49.225V54.125H51.675V51.675Z" fill="#429463"/>
<path d="M63.925 51.675H61.475C61.475 53.0281 62.5719 54.125 63.925 54.125V51.675Z" fill="#429463"/>
<path d="M66.375 51.675H63.925V54.125H66.375V51.675Z" fill="#429463"/>
<path d="M68.825 51.675H66.375V54.125H68.825V51.675Z" fill="#429463"/>
<path d="M71.275 51.675H68.825V54.125C70.1781 54.125 71.275 53.0281 71.275 51.675Z" fill="#429463"/>
<path d="M19.825 54.125H17.375C17.375 55.4781 18.4719 56.575 19.825 56.575V54.125Z" fill="#429463"/>
<path d="M22.275 55.35C22.275 54.6735 21.7266 54.125 21.05 54.125L19.825 54.125V56.575H21.05C21.7265 56.575 22.275 56.0265 22.275 55.35Z" fill="#429463"/>
<path d="M27.175 54.125H25.95C25.2735 54.125 24.725 54.6735 24.725 55.35C24.725 56.0265 25.2735 56.575 25.95 56.575H27.175V54.125Z" fill="#429463"/>
<path d="M29.625 54.125L27.175 54.125V56.575H29.625V54.125Z" fill="#429463"/>
<path d="M41.875 54.125C40.5219 54.125 39.425 55.2219 39.425 56.575H41.875V54.125Z" fill="#429463"/>
<path d="M44.325 54.125H41.875V56.575H44.325V54.125Z" fill="#429463"/>
<path d="M46.775 54.125H44.325V56.575H46.775V54.125Z" fill="#429463"/>
<path d="M51.675 54.125H49.225V56.575H51.675V54.125Z" fill="#429463"/>
<path d="M54.125 54.125L51.675 54.125V56.575H54.125V54.125Z" fill="#429463"/>
<path d="M56.575 54.125H54.125V56.575H56.575V54.125Z" fill="#429463"/>
<path d="M59.025 56.575C59.025 55.2219 57.9281 54.125 56.575 54.125V56.575H59.025Z" fill="#429463"/>
<path d="M66.375 54.125H63.925V56.575H66.375V54.125Z" fill="#429463"/>
<path d="M68.825 54.125H66.375V56.575H68.825V54.125Z" fill="#429463"/>
<path d="M78.625 55.35C78.625 54.6735 78.0765 54.125 77.4 54.125C76.7234 54.125 76.175 54.6735 76.175 55.35V56.575H78.625V55.35Z" fill="#429463"/>
<path d="M29.625 56.575H27.175C27.175 57.9281 28.2719 59.025 29.625 59.025V56.575Z" fill="#429463"/>
<path d="M32.075 56.575H29.625V59.025H32.075V56.575Z" fill="#429463"/>
<path d="M34.525 56.575H32.075V59.025H34.525V56.575Z" fill="#429463"/>
<path d="M36.975 56.575H34.525V59.025H36.975V56.575Z" fill="#429463"/>
<path d="M39.425 56.575H36.975V59.025H39.425V56.575Z" fill="#429463"/>
<path d="M41.875 56.575H39.425V59.025C40.7781 59.025 41.875 57.9281 41.875 56.575Z" fill="#429463"/>
<path d="M46.775 56.575H44.325V59.025H46.775V56.575Z" fill="#429463"/>
<path d="M49.225 56.575H46.775V59.025H49.225V56.575Z" fill="#429463"/>
<path d="M51.675 56.575H49.225V59.025C50.5781 59.025 51.675 57.9281 51.675 56.575Z" fill="#429463"/>
<path d="M59.025 56.575H56.575V59.025H59.025V56.575Z" fill="#429463"/>
<path d="M61.475 56.575H59.025V59.025H61.475V56.575Z" fill="#429463"/>
<path d="M63.925 56.575H61.475V59.025H63.925V56.575Z" fill="#429463"/>
<path d="M66.375 56.575H63.925V59.025H66.375V56.575Z" fill="#429463"/>
<path d="M68.825 56.575H66.375V59.025H68.825V56.575Z" fill="#429463"/>
<path d="M71.275 59.025C71.275 57.6719 70.1781 56.575 68.825 56.575V59.025H71.275Z" fill="#429463"/>
<path d="M76.175 56.575H74.95C74.2734 56.575 73.725 57.1234 73.725 57.8C73.725 58.4765 74.2734 59.025 74.95 59.025H76.175V56.575Z" fill="#429463"/>
<path d="M78.625 56.575H76.175V59.025C77.5281 59.025 78.625 57.9281 78.625 56.575Z" fill="#429463"/>
<path d="M46.775 59.025H44.325C44.325 60.3781 45.4219 61.475 46.775 61.475V59.025Z" fill="#429463"/>
<path d="M56.575 59.025C55.2219 59.025 54.125 60.1219 54.125 61.475H56.575V59.025Z" fill="#429463"/>
<path d="M59.025 59.025H56.575V61.475H59.025V59.025Z" fill="#429463"/>
<path d="M68.825 59.025H66.375V61.475H68.825V59.025Z" fill="#429463"/>
<path d="M71.275 59.025H68.825V61.475C70.1781 61.475 71.275 60.3781 71.275 59.025Z" fill="#429463"/>
<path d="M19.825 61.475C18.4719 61.475 17.375 62.5719 17.375 63.925H19.825V61.475Z" fill="#429463"/>
<path d="M22.275 61.475H19.825V63.925H22.275V61.475Z" fill="#429463"/>
<path d="M24.725 61.475H22.275V63.925H24.725V61.475Z" fill="#429463"/>
<path d="M27.175 61.475H24.725V63.925H27.175V61.475Z" fill="#429463"/>
<path d="M29.625 61.475H27.175V63.925H29.625V61.475Z" fill="#429463"/>
<path d="M32.075 61.475H29.625V63.925H32.075V61.475Z" fill="#429463"/>
<path d="M34.525 63.925C34.525 62.5719 33.4281 61.475 32.075 61.475V63.925H34.525Z" fill="#429463"/>
<path d="M41.875 62.7C41.875 62.0235 41.3265 61.475 40.65 61.475C39.9734 61.475 39.425 62.0235 39.425 62.7V63.925H41.875V62.7Z" fill="#429463"/>
<path d="M49.225 61.475H46.775V63.925H49.225V61.475Z" fill="#429463"/>
<path d="M51.675 63.925C51.675 62.5719 50.5781 61.475 49.225 61.475V63.925H51.675Z" fill="#429463"/>
<path d="M56.575 61.475H54.125C54.125 62.8281 55.2219 63.925 56.575 63.925V61.475Z" fill="#429463"/>
<path d="M59.025 61.475H56.575V63.925H59.025V61.475Z" fill="#429463"/>
<path d="M63.925 62.7C63.925 62.0234 63.3765 61.475 62.7 61.475C62.0234 61.475 61.475 62.0234 61.475 62.7C61.475 63.3765 62.0234 63.925 62.7 63.925C63.3765 63.925 63.925 63.3765 63.925 62.7Z" fill="#429463"/>
<path d="M68.825 61.475H66.375V63.925H68.825V61.475Z" fill="#429463"/>
<path d="M19.825 63.925H17.375V66.375H19.825V63.925Z" fill="#429463"/>
<path d="M34.525 63.925H32.075L32.075 66.375H34.525V63.925Z" fill="#429463"/>
<path d="M39.425 63.925H38.2C37.5235 63.925 36.975 64.4734 36.975 65.15C36.975 65.8265 37.5235 66.375 38.2 66.375H39.425V63.925Z" fill="#429463"/>
<path d="M41.875 63.925H39.425V66.375C40.7781 66.375 41.875 65.2781 41.875 63.925Z" fill="#429463"/>
<path d="M46.775 63.925C45.4219 63.925 44.325 65.0219 44.325 66.375H46.775V63.925Z" fill="#429463"/>
<path d="M49.225 63.925H46.775V66.375H49.225V63.925Z" fill="#429463"/>
<path d="M51.675 63.925H49.225V66.375C50.5781 66.375 51.675 65.2781 51.675 63.925Z" fill="#429463"/>
<path d="M59.025 63.925H56.575V66.375H59.025V63.925Z" fill="#429463"/>
<path d="M68.825 63.925H66.375V66.375H68.825V63.925Z" fill="#429463"/>
<path d="M71.275 66.375C71.275 65.0219 70.1781 63.925 68.825 63.925V66.375H71.275Z" fill="#429463"/>
<path d="M19.825 66.375H17.375V68.825H19.825V66.375Z" fill="#429463"/>
<path d="M24.725 66.375C23.3719 66.375 22.275 67.4719 22.275 68.825H24.725V66.375Z" fill="#429463"/>
<path d="M27.175 66.375H24.725V68.825H27.175V66.375Z" fill="#429463"/>
<path d="M29.625 68.825C29.625 67.4719 28.5281 66.375 27.175 66.375V68.825H29.625Z" fill="#429463"/>
<path d="M34.525 66.375H32.075V68.825H34.525V66.375Z" fill="#429463"/>
<path d="M46.775 66.375H44.325C44.325 67.7281 45.4219 68.825 46.775 68.825V66.375Z" fill="#429463"/>
<path d="M59.025 66.375H56.575V68.825H59.025V66.375Z" fill="#429463"/>
<path d="M61.475 66.375H59.025V68.825H61.475V66.375Z" fill="#429463"/>
<path d="M63.925 66.375H61.475V68.825H63.925V66.375Z" fill="#429463"/>
<path d="M66.375 66.375H63.925V68.825H66.375V66.375Z" fill="#429463"/>
<path d="M68.825 66.375H66.375V68.825H68.825V66.375Z" fill="#429463"/>
<path d="M71.275 66.375H68.825V68.825H71.275V66.375Z" fill="#429463"/>
<path d="M73.725 68.825C73.725 67.4719 72.6281 66.375 71.275 66.375V68.825H73.725Z" fill="#429463"/>
<path d="M78.625 67.6C78.625 66.9235 78.0765 66.375 77.4 66.375C76.7234 66.375 76.175 66.9235 76.175 67.6V68.825H77.4C78.0765 68.825 78.625 68.2765 78.625 67.6Z" fill="#429463"/>
<path d="M19.825 68.825H17.375V71.275H19.825V68.825Z" fill="#429463"/>
<path d="M24.725 68.825H22.275V71.275H24.725V68.825Z" fill="#429463"/>
<path d="M27.175 68.825H24.725V71.275H27.175V68.825Z" fill="#429463"/>
<path d="M29.625 68.825H27.175V71.275H29.625V68.825Z" fill="#429463"/>
<path d="M34.525 68.825H32.075V71.275H34.525V68.825Z" fill="#429463"/>
<path d="M41.875 70.05C41.875 69.3735 41.3265 68.825 40.65 68.825C39.9734 68.825 39.425 69.3735 39.425 70.05V71.275H40.65C41.3265 71.275 41.875 70.7265 41.875 70.05Z" fill="#429463"/>
<path d="M49.225 68.825H46.775C46.775 70.1781 47.8719 71.275 49.225 71.275V68.825Z" fill="#429463"/>
<path d="M51.675 68.825H49.225V71.275H51.675V68.825Z" fill="#429463"/>
<path d="M54.125 68.825H51.675V71.275H54.125V68.825Z" fill="#429463"/>
<path d="M56.575 68.825H54.125V71.275H56.575V68.825Z" fill="#429463"/>
<path d="M59.025 68.825H56.575V71.275H59.025V68.825Z" fill="#429463"/>
<path d="M61.475 68.825H59.025V71.275H61.475V68.825Z" fill="#429463"/>
<path d="M66.375 68.825H63.925V71.275H66.375V68.825Z" fill="#429463"/>
<path d="M68.825 68.825H66.375V71.275C67.7281 71.275 68.825 70.1781 68.825 68.825Z" fill="#429463"/>
<path d="M76.175 68.825H73.725V71.275C75.0781 71.275 76.175 70.1781 76.175 68.825Z" fill="#429463"/>
<path d="M19.825 71.275H17.375V73.725H19.825V71.275Z" fill="#429463"/>
<path d="M24.725 71.275H22.275C22.275 72.6281 23.3719 73.725 24.725 73.725V71.275Z" fill="#429463"/>
<path d="M27.175 71.275H24.725V73.725H27.175V71.275Z" fill="#429463"/>
<path d="M29.625 71.275H27.175V73.725C28.5281 73.725 29.625 72.6281 29.625 71.275Z" fill="#429463"/>
<path d="M34.525 71.275H32.075V73.725H34.525V71.275Z" fill="#429463"/>
<path d="M39.425 71.275H38.2C37.5234 71.275 36.975 71.8235 36.975 72.5C36.975 73.1765 37.5234 73.725 38.2 73.725H39.425V71.275Z" fill="#429463"/>
<path d="M51.675 71.275H49.225V73.725H51.675V71.275Z" fill="#429463"/>
<path d="M63.925 71.275H61.475V73.725C62.8281 73.725 63.925 72.6281 63.925 71.275Z" fill="#429463"/>
<path d="M73.725 71.275C72.3719 71.275 71.275 72.3719 71.275 73.725H73.725V71.275Z" fill="#429463"/>
<path d="M19.825 73.725H17.375V76.175H19.825V73.725Z" fill="#429463"/>
<path d="M34.525 73.725H32.075V76.175H34.525V73.725Z" fill="#429463"/>
<path d="M41.875 76.175C41.875 74.8219 40.7781 73.725 39.425 73.725V76.175H41.875Z" fill="#429463"/>
<path d="M46.775 74.95C46.775 74.2734 46.2265 73.725 45.55 73.725C44.8734 73.725 44.325 74.2734 44.325 74.95V76.175H46.775V74.95Z" fill="#429463"/>
<path d="M51.675 73.725H49.225V76.175H51.675V73.725Z" fill="#429463"/>
<path d="M56.575 74.95C56.575 74.2734 56.0265 73.725 55.35 73.725C54.6735 73.725 54.125 74.2734 54.125 74.95V76.175H56.575V74.95Z" fill="#429463"/>
<path d="M61.475 73.725C60.1219 73.725 59.025 74.8219 59.025 76.175H61.475V73.725Z" fill="#429463"/>
<path d="M68.825 73.725C67.4719 73.725 66.375 74.8219 66.375 76.175H68.825V73.725Z" fill="#429463"/>
<path d="M71.275 73.725H68.825V76.175H71.275V73.725Z" fill="#429463"/>
<path d="M73.725 73.725H71.275V76.175H73.725V73.725Z" fill="#429463"/>
<path d="M19.825 76.175H17.375C17.375 77.5281 18.4719 78.625 19.825 78.625V76.175Z" fill="#429463"/>
<path d="M22.275 76.175H19.825V78.625H22.275V76.175Z" fill="#429463"/>
<path d="M24.725 76.175H22.275V78.625H24.725V76.175Z" fill="#429463"/>
<path d="M27.175 76.175H24.725V78.625H27.175V76.175Z" fill="#429463"/>
<path d="M29.625 76.175H27.175V78.625H29.625V76.175Z" fill="#429463"/>
<path d="M32.075 76.175H29.625V78.625H32.075L32.075 76.175Z" fill="#429463"/>
<path d="M34.525 76.175H32.075L32.075 78.625C33.4281 78.625 34.525 77.5281 34.525 76.175Z" fill="#429463"/>
<path d="M39.425 76.175H38.2C37.5235 76.175 36.975 76.7234 36.975 77.4C36.975 78.0765 37.5235 78.625 38.2 78.625H39.425V76.175Z" fill="#429463"/>
<path d="M41.875 76.175H39.425V78.625H41.875V76.175Z" fill="#429463"/>
<path d="M44.325 76.175H41.875V78.625H44.325V76.175Z" fill="#429463"/>
<path d="M46.775 76.175H44.325V78.625H46.775V76.175Z" fill="#429463"/>
<path d="M49.225 76.175H46.775V78.625H49.225V76.175Z" fill="#429463"/>
<path d="M51.675 76.175H49.225V78.625H51.675V76.175Z" fill="#429463"/>
<path d="M54.125 76.175H51.675V78.625H54.125L54.125 76.175Z" fill="#429463"/>
<path d="M56.575 76.175H54.125L54.125 78.625H56.575V76.175Z" fill="#429463"/>
<path d="M59.025 76.175H56.575V78.625H59.025V76.175Z" fill="#429463"/>
<path d="M61.475 76.175H59.025V78.625H61.475V76.175Z" fill="#429463"/>
<path d="M63.925 77.4C63.925 76.7234 63.3765 76.175 62.7 76.175H61.475V78.625H62.7C63.3765 78.625 63.925 78.0765 63.925 77.4Z" fill="#429463"/>
<path d="M68.825 76.175H66.375V77.4C66.375 78.0765 66.9235 78.625 67.6 78.625C68.2765 78.625 68.825 78.0765 68.825 77.4V76.175Z" fill="#429463"/>
<path d="M73.725 76.175H71.275V77.4C71.275 78.0765 71.8235 78.625 72.5 78.625C73.1765 78.625 73.725 78.0765 73.725 77.4V76.175Z" fill="#429463"/>
<path d="M78.625 77.4C78.625 76.7234 78.0765 76.175 77.4 76.175C76.7234 76.175 76.175 76.7234 76.175 77.4C76.175 78.0765 76.7234 78.625 77.4 78.625C78.0765 78.625 78.625 78.0765 78.625 77.4Z" fill="#429463"/>
</g>
<path d="M102.352 44.192C101.616 44.192 100.933 44.0533 100.304 43.776C99.6747 43.4987 99.1307 43.12 98.672 42.64L99.472 41.712C99.8453 42.1067 100.283 42.4267 100.784 42.672C101.296 42.9067 101.824 43.024 102.368 43.024C103.061 43.024 103.6 42.8693 103.984 42.56C104.368 42.24 104.56 41.824 104.56 41.312C104.56 41.0453 104.512 40.8213 104.416 40.64C104.331 40.448 104.208 40.288 104.048 40.16C103.899 40.0213 103.717 39.8987 103.504 39.792C103.291 39.6853 103.061 39.5733 102.816 39.456L101.312 38.8C101.067 38.6933 100.816 38.5653 100.56 38.416C100.304 38.2667 100.075 38.0853 99.872 37.872C99.6693 37.6587 99.504 37.408 99.376 37.12C99.248 36.8213 99.184 36.48 99.184 36.096C99.184 35.7013 99.264 35.3333 99.424 34.992C99.5947 34.6507 99.824 34.3573 100.112 34.112C100.411 33.856 100.757 33.6587 101.152 33.52C101.557 33.3813 102 33.312 102.48 33.312C103.109 33.312 103.691 33.4347 104.224 33.68C104.757 33.9147 105.211 34.224 105.584 34.608L104.864 35.472C104.544 35.1627 104.187 34.9227 103.792 34.752C103.408 34.5707 102.971 34.48 102.48 34.48C101.893 34.48 101.419 34.6187 101.056 34.896C100.704 35.1627 100.528 35.536 100.528 36.016C100.528 36.272 100.576 36.4907 100.672 36.672C100.779 36.8427 100.917 36.9973 101.088 37.136C101.259 37.264 101.445 37.3813 101.648 37.488C101.851 37.584 102.059 37.6747 102.272 37.76L103.76 38.4C104.059 38.528 104.341 38.6773 104.608 38.848C104.875 39.008 105.104 39.2 105.296 39.424C105.488 39.6373 105.637 39.8933 105.744 40.192C105.861 40.48 105.92 40.816 105.92 41.2C105.92 41.616 105.835 42.0053 105.664 42.368C105.504 42.7307 105.269 43.0507 104.96 43.328C104.651 43.5947 104.277 43.808 103.84 43.968C103.403 44.1173 102.907 44.192 102.352 44.192ZM110.931 44.192C110.419 44.192 109.939 44.1013 109.491 43.92C109.043 43.7387 108.654 43.4773 108.323 43.136C108.003 42.784 107.747 42.3573 107.555 41.856C107.374 41.344 107.283 40.768 107.283 40.128C107.283 39.4773 107.384 38.9013 107.587 38.4C107.79 37.888 108.062 37.456 108.403 37.104C108.744 36.752 109.139 36.4853 109.587 36.304C110.046 36.1227 110.526 36.032 111.027 36.032C111.539 36.032 111.976 36.1227 112.339 36.304C112.702 36.4853 113.022 36.6987 113.299 36.944L112.627 37.808C112.403 37.6053 112.163 37.44 111.907 37.312C111.662 37.184 111.384 37.12 111.075 37.12C110.723 37.12 110.398 37.1947 110.099 37.344C109.8 37.4827 109.544 37.6853 109.331 37.952C109.118 38.2187 108.947 38.5387 108.819 38.912C108.702 39.2747 108.643 39.68 108.643 40.128C108.643 40.576 108.702 40.9813 108.819 41.344C108.936 41.7067 109.096 42.0213 109.299 42.288C109.512 42.544 109.768 42.7467 110.067 42.896C110.366 43.0347 110.691 43.104 111.043 43.104C111.406 43.104 111.736 43.0293 112.035 42.88C112.344 42.72 112.622 42.5333 112.867 42.32L113.443 43.2C113.091 43.5093 112.702 43.7547 112.275 43.936C111.848 44.1067 111.4 44.192 110.931 44.192ZM116.792 44.192C116.141 44.192 115.597 44 115.16 43.616C114.733 43.232 114.52 42.688 114.52 41.984C114.52 41.1307 114.898 40.48 115.656 40.032C116.413 39.5733 117.624 39.2533 119.288 39.072C119.288 38.8267 119.261 38.5867 119.208 38.352C119.165 38.1173 119.085 37.9093 118.968 37.728C118.85 37.5467 118.685 37.4027 118.472 37.296C118.269 37.1787 118.008 37.12 117.688 37.12C117.24 37.12 116.818 37.2053 116.424 37.376C116.029 37.5467 115.677 37.7387 115.368 37.952L114.856 37.04C115.218 36.8053 115.661 36.5813 116.184 36.368C116.706 36.144 117.282 36.032 117.911 36.032C118.861 36.032 119.549 36.3253 119.976 36.912C120.402 37.488 120.616 38.2613 120.616 39.232V44H119.528L119.416 43.072H119.368C118.994 43.3813 118.594 43.648 118.168 43.872C117.741 44.0853 117.282 44.192 116.792 44.192ZM117.176 43.136C117.549 43.136 117.901 43.0507 118.232 42.88C118.562 42.6987 118.914 42.4373 119.288 42.096V39.936C118.637 40.0213 118.088 40.1227 117.64 40.24C117.202 40.3573 116.845 40.496 116.568 40.656C116.301 40.816 116.104 41.0027 115.976 41.216C115.858 41.4187 115.799 41.6427 115.799 41.888C115.799 42.336 115.933 42.656 116.2 42.848C116.466 43.04 116.792 43.136 117.176 43.136ZM123.062 36.224H124.15L124.262 37.344H124.31C124.683 36.9707 125.073 36.6613 125.478 36.416C125.894 36.16 126.374 36.032 126.918 36.032C127.739 36.032 128.337 36.288 128.71 36.8C129.094 37.312 129.286 38.0693 129.286 39.072V44H127.974V39.248C127.974 38.512 127.857 37.984 127.622 37.664C127.387 37.3333 127.014 37.168 126.502 37.168C126.097 37.168 125.739 37.2693 125.43 37.472C125.121 37.6747 124.769 37.9733 124.374 38.368V44H123.062V36.224ZM137.463 44.192C137.047 44.192 136.695 44.128 136.407 44C136.13 43.872 135.9 43.696 135.719 43.472C135.548 43.248 135.426 42.976 135.351 42.656C135.276 42.336 135.239 41.984 135.239 41.6V37.296H134.087V36.304L135.303 36.224L135.463 34.048H136.567V36.224H138.663V37.296H136.567V41.616C136.567 42.096 136.652 42.4693 136.823 42.736C137.004 42.992 137.319 43.12 137.767 43.12C137.906 43.12 138.055 43.0987 138.215 43.056C138.375 43.0133 138.519 42.9653 138.647 42.912L138.903 43.904C138.69 43.9787 138.455 44.0427 138.199 44.096C137.954 44.16 137.708 44.192 137.463 44.192ZM143.227 44.192C142.747 44.192 142.288 44.1013 141.851 43.92C141.424 43.7387 141.045 43.4773 140.715 43.136C140.384 42.784 140.117 42.3573 139.915 41.856C139.723 41.344 139.627 40.768 139.627 40.128C139.627 39.4773 139.723 38.9013 139.915 38.4C140.117 37.888 140.384 37.456 140.715 37.104C141.045 36.752 141.424 36.4853 141.851 36.304C142.288 36.1227 142.747 36.032 143.227 36.032C143.707 36.032 144.16 36.1227 144.587 36.304C145.024 36.4853 145.408 36.752 145.739 37.104C146.069 37.456 146.331 37.888 146.523 38.4C146.725 38.9013 146.827 39.4773 146.827 40.128C146.827 40.768 146.725 41.344 146.523 41.856C146.331 42.3573 146.069 42.784 145.739 43.136C145.408 43.4773 145.024 43.7387 144.587 43.92C144.16 44.1013 143.707 44.192 143.227 44.192ZM143.227 43.104C143.557 43.104 143.861 43.0347 144.139 42.896C144.416 42.7467 144.651 42.544 144.843 42.288C145.045 42.0213 145.2 41.7067 145.307 41.344C145.413 40.9813 145.467 40.576 145.467 40.128C145.467 39.68 145.413 39.2747 145.307 38.912C145.2 38.5387 145.045 38.2187 144.843 37.952C144.651 37.6853 144.416 37.4827 144.139 37.344C143.861 37.1947 143.557 37.12 143.227 37.12C142.896 37.12 142.592 37.1947 142.315 37.344C142.037 37.4827 141.797 37.6853 141.595 37.952C141.403 38.2187 141.253 38.5387 141.147 38.912C141.04 39.2747 140.987 39.68 140.987 40.128C140.987 40.576 141.04 40.9813 141.147 41.344C141.253 41.7067 141.403 42.0213 141.595 42.288C141.797 42.544 142.037 42.7467 142.315 42.896C142.592 43.0347 142.896 43.104 143.227 43.104ZM154.734 44.192C153.752 44.192 152.968 43.84 152.382 43.136C151.806 42.432 151.518 41.4293 151.518 40.128C151.518 39.4987 151.608 38.9333 151.79 38.432C151.982 37.92 152.232 37.488 152.542 37.136C152.851 36.784 153.208 36.512 153.614 36.32C154.019 36.128 154.446 36.032 154.894 36.032C155.342 36.032 155.731 36.112 156.062 36.272C156.392 36.432 156.728 36.6507 157.07 36.928L157.006 35.6V32.608H158.334V44H157.246L157.134 43.088H157.086C156.776 43.3867 156.419 43.648 156.014 43.872C155.619 44.0853 155.192 44.192 154.734 44.192ZM155.022 43.088C155.384 43.088 155.726 43.0027 156.046 42.832C156.366 42.6507 156.686 42.3787 157.006 42.016V37.952C156.675 37.6533 156.355 37.4453 156.046 37.328C155.747 37.2 155.438 37.136 155.118 37.136C154.808 37.136 154.515 37.2107 154.238 37.36C153.971 37.4987 153.736 37.7013 153.534 37.968C153.331 38.224 153.171 38.5333 153.054 38.896C152.936 39.2587 152.878 39.664 152.878 40.112C152.878 41.0507 153.064 41.7813 153.438 42.304C153.811 42.8267 154.339 43.088 155.022 43.088ZM160.953 36.224H162.265V44H160.953V36.224ZM161.625 34.624C161.369 34.624 161.15 34.544 160.969 34.384C160.798 34.224 160.713 34.0213 160.713 33.776C160.713 33.52 160.798 33.3173 160.969 33.168C161.15 33.008 161.369 32.928 161.625 32.928C161.881 32.928 162.094 33.008 162.265 33.168C162.446 33.3173 162.537 33.52 162.537 33.776C162.537 34.0213 162.446 34.224 162.265 34.384C162.094 34.544 161.881 34.624 161.625 34.624ZM166.922 44.192C166.367 44.192 165.839 44.0907 165.338 43.888C164.837 43.6853 164.399 43.4293 164.026 43.12L164.682 42.24C165.023 42.5173 165.37 42.7413 165.722 42.912C166.085 43.0827 166.501 43.168 166.97 43.168C167.482 43.168 167.866 43.0507 168.122 42.816C168.378 42.5813 168.506 42.2933 168.506 41.952C168.506 41.7493 168.453 41.5733 168.346 41.424C168.239 41.2747 168.101 41.1467 167.93 41.04C167.77 40.9227 167.583 40.8213 167.37 40.736C167.157 40.6507 166.943 40.5653 166.73 40.48C166.453 40.384 166.175 40.2773 165.898 40.16C165.621 40.032 165.37 39.8827 165.146 39.712C164.933 39.5307 164.757 39.3227 164.618 39.088C164.479 38.8533 164.41 38.5707 164.41 38.24C164.41 37.9307 164.469 37.6427 164.586 37.376C164.714 37.0987 164.89 36.864 165.114 36.672C165.349 36.4693 165.631 36.3147 165.962 36.208C166.293 36.0907 166.666 36.032 167.082 36.032C167.573 36.032 168.021 36.1173 168.426 36.288C168.842 36.4587 169.199 36.6667 169.498 36.912L168.874 37.744C168.607 37.5413 168.33 37.376 168.042 37.248C167.754 37.12 167.439 37.056 167.098 37.056C166.607 37.056 166.245 37.168 166.01 37.392C165.786 37.616 165.674 37.8773 165.674 38.176C165.674 38.3573 165.722 38.5173 165.818 38.656C165.914 38.784 166.042 38.9013 166.202 39.008C166.362 39.104 166.543 39.1947 166.746 39.28C166.959 39.3547 167.178 39.4347 167.402 39.52C167.679 39.6267 167.957 39.7387 168.234 39.856C168.522 39.9733 168.778 40.1227 169.002 40.304C169.226 40.4747 169.407 40.688 169.546 40.944C169.695 41.2 169.77 41.5093 169.77 41.872C169.77 42.192 169.706 42.4907 169.578 42.768C169.461 43.0453 169.279 43.2907 169.034 43.504C168.799 43.7173 168.501 43.8827 168.138 44C167.786 44.128 167.381 44.192 166.922 44.192ZM174.665 44.192C174.153 44.192 173.673 44.1013 173.225 43.92C172.777 43.7387 172.388 43.4773 172.057 43.136C171.737 42.784 171.481 42.3573 171.289 41.856C171.108 41.344 171.017 40.768 171.017 40.128C171.017 39.4773 171.119 38.9013 171.321 38.4C171.524 37.888 171.796 37.456 172.137 37.104C172.479 36.752 172.873 36.4853 173.321 36.304C173.78 36.1227 174.26 36.032 174.761 36.032C175.273 36.032 175.711 36.1227 176.073 36.304C176.436 36.4853 176.756 36.6987 177.033 36.944L176.361 37.808C176.137 37.6053 175.897 37.44 175.641 37.312C175.396 37.184 175.119 37.12 174.809 37.12C174.457 37.12 174.132 37.1947 173.833 37.344C173.535 37.4827 173.279 37.6853 173.065 37.952C172.852 38.2187 172.681 38.5387 172.553 38.912C172.436 39.2747 172.377 39.68 172.377 40.128C172.377 40.576 172.436 40.9813 172.553 41.344C172.671 41.7067 172.831 42.0213 173.033 42.288C173.247 42.544 173.503 42.7467 173.801 42.896C174.1 43.0347 174.425 43.104 174.777 43.104C175.14 43.104 175.471 43.0293 175.769 42.88C176.079 42.72 176.356 42.5333 176.601 42.32L177.177 43.2C176.825 43.5093 176.436 43.7547 176.009 43.936C175.583 44.1067 175.135 44.192 174.665 44.192ZM181.57 44.192C181.09 44.192 180.632 44.1013 180.194 43.92C179.768 43.7387 179.389 43.4773 179.058 43.136C178.728 42.784 178.461 42.3573 178.258 41.856C178.066 41.344 177.97 40.768 177.97 40.128C177.97 39.4773 178.066 38.9013 178.258 38.4C178.461 37.888 178.728 37.456 179.058 37.104C179.389 36.752 179.768 36.4853 180.194 36.304C180.632 36.1227 181.09 36.032 181.57 36.032C182.05 36.032 182.504 36.1227 182.93 36.304C183.368 36.4853 183.752 36.752 184.082 37.104C184.413 37.456 184.674 37.888 184.866 38.4C185.069 38.9013 185.17 39.4773 185.17 40.128C185.17 40.768 185.069 41.344 184.866 41.856C184.674 42.3573 184.413 42.784 184.082 43.136C183.752 43.4773 183.368 43.7387 182.93 43.92C182.504 44.1013 182.05 44.192 181.57 44.192ZM181.57 43.104C181.901 43.104 182.205 43.0347 182.482 42.896C182.76 42.7467 182.994 42.544 183.186 42.288C183.389 42.0213 183.544 41.7067 183.65 41.344C183.757 40.9813 183.81 40.576 183.81 40.128C183.81 39.68 183.757 39.2747 183.65 38.912C183.544 38.5387 183.389 38.2187 183.186 37.952C182.994 37.6853 182.76 37.4827 182.482 37.344C182.205 37.1947 181.901 37.12 181.57 37.12C181.24 37.12 180.936 37.1947 180.658 37.344C180.381 37.4827 180.141 37.6853 179.938 37.952C179.746 38.2187 179.597 38.5387 179.49 38.912C179.384 39.2747 179.33 39.68 179.33 40.128C179.33 40.576 179.384 40.9813 179.49 41.344C179.597 41.7067 179.746 42.0213 179.938 42.288C180.141 42.544 180.381 42.7467 180.658 42.896C180.936 43.0347 181.24 43.104 181.57 43.104ZM186.036 36.224H187.396L188.868 40.64C188.985 41.024 189.102 41.408 189.22 41.792C189.348 42.176 189.47 42.5547 189.588 42.928H189.652C189.769 42.5547 189.886 42.176 190.004 41.792C190.121 41.408 190.238 41.024 190.356 40.64L191.828 36.224H193.124L190.372 44H188.836L186.036 36.224ZM197.714 44.192C197.191 44.192 196.701 44.1013 196.242 43.92C195.794 43.728 195.399 43.4613 195.058 43.12C194.727 42.768 194.466 42.3413 194.274 41.84C194.082 41.3387 193.986 40.768 193.986 40.128C193.986 39.488 194.082 38.9173 194.274 38.416C194.477 37.904 194.738 37.472 195.058 37.12C195.389 36.768 195.762 36.5013 196.178 36.32C196.594 36.128 197.026 36.032 197.474 36.032C197.965 36.032 198.402 36.1173 198.786 36.288C199.181 36.4587 199.506 36.704 199.762 37.024C200.029 37.344 200.231 37.728 200.37 38.176C200.509 38.624 200.578 39.1253 200.578 39.68C200.578 39.8187 200.573 39.9573 200.562 40.096C200.562 40.224 200.551 40.336 200.53 40.432H195.282C195.335 41.264 195.591 41.9253 196.05 42.416C196.519 42.896 197.127 43.136 197.874 43.136C198.247 43.136 198.589 43.0827 198.898 42.976C199.218 42.8587 199.522 42.7093 199.81 42.528L200.274 43.392C199.933 43.6053 199.554 43.792 199.138 43.952C198.722 44.112 198.247 44.192 197.714 44.192ZM199.426 39.488C199.426 38.6987 199.255 38.1013 198.914 37.696C198.583 37.28 198.114 37.072 197.506 37.072C197.229 37.072 196.962 37.1253 196.706 37.232C196.461 37.3387 196.237 37.4987 196.034 37.712C195.831 37.9147 195.661 38.1653 195.522 38.464C195.394 38.7627 195.309 39.104 195.266 39.488H199.426ZM202.5 36.224H203.588L203.7 37.632H203.748C204.014 37.1413 204.334 36.752 204.708 36.464C205.092 36.176 205.508 36.032 205.956 36.032C206.265 36.032 206.542 36.0853 206.788 36.192L206.532 37.344C206.404 37.3013 206.286 37.2693 206.18 37.248C206.073 37.2267 205.94 37.216 205.78 37.216C205.449 37.216 205.102 37.3493 204.74 37.616C204.388 37.8827 204.078 38.3467 203.812 39.008V44H202.5V36.224ZM213.042 44.192C212.391 44.192 211.847 44 211.41 43.616C210.983 43.232 210.77 42.688 210.77 41.984C210.77 41.1307 211.148 40.48 211.906 40.032C212.663 39.5733 213.874 39.2533 215.538 39.072C215.538 38.8267 215.511 38.5867 215.458 38.352C215.415 38.1173 215.335 37.9093 215.218 37.728C215.1 37.5467 214.935 37.4027 214.722 37.296C214.519 37.1787 214.258 37.12 213.938 37.12C213.49 37.12 213.068 37.2053 212.674 37.376C212.279 37.5467 211.927 37.7387 211.618 37.952L211.106 37.04C211.468 36.8053 211.911 36.5813 212.434 36.368C212.956 36.144 213.532 36.032 214.161 36.032C215.111 36.032 215.799 36.3253 216.226 36.912C216.652 37.488 216.866 38.2613 216.866 39.232V44H215.778L215.666 43.072H215.618C215.244 43.3813 214.844 43.648 214.418 43.872C213.991 44.0853 213.532 44.192 213.042 44.192ZM213.426 43.136C213.799 43.136 214.151 43.0507 214.482 42.88C214.812 42.6987 215.164 42.4373 215.538 42.096V39.936C214.887 40.0213 214.338 40.1227 213.89 40.24C213.452 40.3573 213.095 40.496 212.818 40.656C212.551 40.816 212.354 41.0027 212.226 41.216C212.108 41.4187 212.049 41.6427 212.049 41.888C212.049 42.336 212.183 42.656 212.45 42.848C212.716 43.04 213.042 43.136 213.426 43.136ZM99.312 52.608H100.624V55.712L100.576 57.312C100.949 56.96 101.339 56.6613 101.744 56.416C102.149 56.16 102.624 56.032 103.168 56.032C103.989 56.032 104.587 56.288 104.96 56.8C105.344 57.312 105.536 58.0693 105.536 59.072V64H104.224V59.248C104.224 58.512 104.107 57.984 103.872 57.664C103.637 57.3333 103.264 57.168 102.752 57.168C102.347 57.168 101.989 57.2693 101.68 57.472C101.371 57.6747 101.019 57.9733 100.624 58.368V64H99.312V52.608ZM108.015 56.224H109.327V64H108.015V56.224ZM108.687 54.624C108.431 54.624 108.212 54.544 108.031 54.384C107.86 54.224 107.775 54.0213 107.775 53.776C107.775 53.52 107.86 53.3173 108.031 53.168C108.212 53.008 108.431 52.928 108.687 52.928C108.943 52.928 109.156 53.008 109.327 53.168C109.508 53.3173 109.599 53.52 109.599 53.776C109.599 54.0213 109.508 54.224 109.327 54.384C109.156 54.544 108.943 54.624 108.687 54.624ZM114.609 64.192C113.627 64.192 112.843 63.84 112.257 63.136C111.681 62.432 111.393 61.4293 111.393 60.128C111.393 59.4987 111.483 58.9333 111.665 58.432C111.857 57.92 112.107 57.488 112.417 57.136C112.726 56.784 113.083 56.512 113.489 56.32C113.894 56.128 114.321 56.032 114.769 56.032C115.217 56.032 115.606 56.112 115.937 56.272C116.267 56.432 116.603 56.6507 116.945 56.928L116.881 55.6V52.608H118.209V64H117.121L117.009 63.088H116.961C116.651 63.3867 116.294 63.648 115.889 63.872C115.494 64.0853 115.067 64.192 114.609 64.192ZM114.897 63.088C115.259 63.088 115.601 63.0027 115.921 62.832C116.241 62.6507 116.561 62.3787 116.881 62.016V57.952C116.55 57.6533 116.23 57.4453 115.921 57.328C115.622 57.2 115.313 57.136 114.993 57.136C114.683 57.136 114.39 57.2107 114.113 57.36C113.846 57.4987 113.611 57.7013 113.409 57.968C113.206 58.224 113.046 58.5333 112.929 58.896C112.811 59.2587 112.753 59.664 112.753 60.112C112.753 61.0507 112.939 61.7813 113.313 62.304C113.686 62.8267 114.214 63.088 114.897 63.088ZM123.484 64.192C122.502 64.192 121.718 63.84 121.132 63.136C120.556 62.432 120.268 61.4293 120.268 60.128C120.268 59.4987 120.358 58.9333 120.54 58.432C120.732 57.92 120.982 57.488 121.292 57.136C121.601 56.784 121.958 56.512 122.364 56.32C122.769 56.128 123.196 56.032 123.644 56.032C124.092 56.032 124.481 56.112 124.812 56.272C125.142 56.432 125.478 56.6507 125.82 56.928L125.756 55.6V52.608H127.084V64H125.996L125.884 63.088H125.836C125.526 63.3867 125.169 63.648 124.764 63.872C124.369 64.0853 123.942 64.192 123.484 64.192ZM123.772 63.088C124.134 63.088 124.476 63.0027 124.796 62.832C125.116 62.6507 125.436 62.3787 125.756 62.016V57.952C125.425 57.6533 125.105 57.4453 124.796 57.328C124.497 57.2 124.188 57.136 123.868 57.136C123.558 57.136 123.265 57.2107 122.988 57.36C122.721 57.4987 122.486 57.7013 122.284 57.968C122.081 58.224 121.921 58.5333 121.804 58.896C121.686 59.2587 121.628 59.664 121.628 60.112C121.628 61.0507 121.814 61.7813 122.188 62.304C122.561 62.8267 123.089 63.088 123.772 63.088ZM132.855 64.192C132.332 64.192 131.841 64.1013 131.383 63.92C130.935 63.728 130.54 63.4613 130.199 63.12C129.868 62.768 129.607 62.3413 129.415 61.84C129.223 61.3387 129.127 60.768 129.127 60.128C129.127 59.488 129.223 58.9173 129.415 58.416C129.617 57.904 129.879 57.472 130.199 57.12C130.529 56.768 130.903 56.5013 131.319 56.32C131.735 56.128 132.167 56.032 132.615 56.032C133.105 56.032 133.543 56.1173 133.927 56.288C134.321 56.4587 134.647 56.704 134.903 57.024C135.169 57.344 135.372 57.728 135.511 58.176C135.649 58.624 135.719 59.1253 135.719 59.68C135.719 59.8187 135.713 59.9573 135.703 60.096C135.703 60.224 135.692 60.336 135.671 60.432H130.423C130.476 61.264 130.732 61.9253 131.191 62.416C131.66 62.896 132.268 63.136 133.015 63.136C133.388 63.136 133.729 63.0827 134.039 62.976C134.359 62.8587 134.663 62.7093 134.951 62.528L135.415 63.392C135.073 63.6053 134.695 63.792 134.279 63.952C133.863 64.112 133.388 64.192 132.855 64.192ZM134.567 59.488C134.567 58.6987 134.396 58.1013 134.055 57.696C133.724 57.28 133.255 57.072 132.647 57.072C132.369 57.072 132.103 57.1253 131.847 57.232C131.601 57.3387 131.377 57.4987 131.175 57.712C130.972 57.9147 130.801 58.1653 130.663 58.464C130.535 58.7627 130.449 59.104 130.407 59.488H134.567ZM137.64 56.224H138.728L138.84 57.344H138.888C139.261 56.9707 139.651 56.6613 140.056 56.416C140.472 56.16 140.952 56.032 141.496 56.032C142.317 56.032 142.915 56.288 143.288 56.8C143.672 57.312 143.864 58.0693 143.864 59.072V64H142.552V59.248C142.552 58.512 142.435 57.984 142.2 57.664C141.965 57.3333 141.592 57.168 141.08 57.168C140.675 57.168 140.317 57.2693 140.008 57.472C139.699 57.6747 139.347 57.9733 138.952 58.368V64H137.64V56.224ZM152.745 64.192C152.223 64.192 151.732 64.1013 151.273 63.92C150.825 63.728 150.431 63.4613 150.089 63.12C149.759 62.768 149.497 62.3413 149.305 61.84C149.113 61.3387 149.017 60.768 149.017 60.128C149.017 59.488 149.113 58.9173 149.305 58.416C149.508 57.904 149.769 57.472 150.089 57.12C150.42 56.768 150.793 56.5013 151.209 56.32C151.625 56.128 152.057 56.032 152.505 56.032C152.996 56.032 153.433 56.1173 153.817 56.288C154.212 56.4587 154.537 56.704 154.793 57.024C155.06 57.344 155.263 57.728 155.401 58.176C155.54 58.624 155.609 59.1253 155.609 59.68C155.609 59.8187 155.604 59.9573 155.593 60.096C155.593 60.224 155.583 60.336 155.561 60.432H150.313C150.367 61.264 150.623 61.9253 151.081 62.416C151.551 62.896 152.159 63.136 152.905 63.136C153.279 63.136 153.62 63.0827 153.929 62.976C154.249 62.8587 154.553 62.7093 154.841 62.528L155.305 63.392C154.964 63.6053 154.585 63.792 154.169 63.952C153.753 64.112 153.279 64.192 152.745 64.192ZM154.457 59.488C154.457 58.6987 154.287 58.1013 153.945 57.696C153.615 57.28 153.145 57.072 152.537 57.072C152.26 57.072 151.993 57.1253 151.737 57.232C151.492 57.3387 151.268 57.4987 151.065 57.712C150.863 57.9147 150.692 58.1653 150.553 58.464C150.425 58.7627 150.34 59.104 150.297 59.488H154.457ZM158.877 59.936L156.525 56.224H157.949L158.989 57.936C159.107 58.1493 159.229 58.368 159.357 58.592C159.485 58.8053 159.619 59.0187 159.757 59.232H159.821C159.939 59.0187 160.056 58.8053 160.173 58.592C160.291 58.368 160.408 58.1493 160.525 57.936L161.469 56.224H162.845L160.493 60.08L163.021 64H161.597L160.461 62.192C160.323 61.9573 160.184 61.7227 160.045 61.488C159.907 61.2533 159.763 61.024 159.613 60.8H159.549C159.411 61.024 159.277 61.2533 159.149 61.488C159.021 61.712 158.893 61.9467 158.765 62.192L157.709 64H156.333L158.877 59.936ZM164.562 56.224H165.65L165.762 57.12H165.81C166.162 56.8213 166.546 56.5653 166.962 56.352C167.389 56.1387 167.831 56.032 168.29 56.032C168.791 56.032 169.234 56.128 169.618 56.32C170.002 56.5013 170.322 56.768 170.578 57.12C170.834 57.4613 171.026 57.8773 171.154 58.368C171.293 58.848 171.362 59.392 171.362 60C171.362 60.6613 171.271 61.2533 171.09 61.776C170.909 62.288 170.663 62.7253 170.354 63.088C170.045 63.4507 169.687 63.728 169.282 63.92C168.877 64.1013 168.45 64.192 168.002 64.192C167.639 64.192 167.277 64.112 166.914 63.952C166.562 63.792 166.205 63.5733 165.842 63.296L165.874 64.656V67.28H164.562V56.224ZM167.778 63.088C168.098 63.088 168.391 63.0187 168.658 62.88C168.935 62.7307 169.17 62.528 169.362 62.272C169.565 62.0053 169.719 61.68 169.826 61.296C169.943 60.912 170.002 60.48 170.002 60C170.002 59.5733 169.965 59.184 169.89 58.832C169.815 58.48 169.693 58.1813 169.522 57.936C169.362 57.68 169.149 57.4827 168.882 57.344C168.626 57.2053 168.317 57.136 167.954 57.136C167.623 57.136 167.287 57.2267 166.946 57.408C166.615 57.5893 166.258 57.8507 165.874 58.192V62.272C166.226 62.5707 166.567 62.784 166.898 62.912C167.229 63.0293 167.522 63.088 167.778 63.088ZM176.589 64.192C176.066 64.192 175.576 64.1013 175.117 63.92C174.669 63.728 174.274 63.4613 173.933 63.12C173.602 62.768 173.341 62.3413 173.149 61.84C172.957 61.3387 172.861 60.768 172.861 60.128C172.861 59.488 172.957 58.9173 173.149 58.416C173.352 57.904 173.613 57.472 173.933 57.12C174.264 56.768 174.637 56.5013 175.053 56.32C175.469 56.128 175.901 56.032 176.349 56.032C176.84 56.032 177.277 56.1173 177.661 56.288C178.056 56.4587 178.381 56.704 178.637 57.024C178.904 57.344 179.106 57.728 179.245 58.176C179.384 58.624 179.453 59.1253 179.453 59.68C179.453 59.8187 179.448 59.9573 179.437 60.096C179.437 60.224 179.426 60.336 179.405 60.432H174.157C174.21 61.264 174.466 61.9253 174.925 62.416C175.394 62.896 176.002 63.136 176.749 63.136C177.122 63.136 177.464 63.0827 177.773 62.976C178.093 62.8587 178.397 62.7093 178.685 62.528L179.149 63.392C178.808 63.6053 178.429 63.792 178.013 63.952C177.597 64.112 177.122 64.192 176.589 64.192ZM178.301 59.488C178.301 58.6987 178.13 58.1013 177.789 57.696C177.458 57.28 176.989 57.072 176.381 57.072C176.104 57.072 175.837 57.1253 175.581 57.232C175.336 57.3387 175.112 57.4987 174.909 57.712C174.706 57.9147 174.536 58.1653 174.397 58.464C174.269 58.7627 174.184 59.104 174.141 59.488H178.301ZM181.375 56.224H182.463L182.575 57.632H182.623C182.889 57.1413 183.209 56.752 183.583 56.464C183.967 56.176 184.383 56.032 184.831 56.032C185.14 56.032 185.417 56.0853 185.663 56.192L185.407 57.344C185.279 57.3013 185.161 57.2693 185.055 57.248C184.948 57.2267 184.815 57.216 184.655 57.216C184.324 57.216 183.977 57.3493 183.615 57.616C183.263 57.8827 182.953 58.3467 182.687 59.008V64H181.375V56.224ZM186.921 56.224H188.233V64H186.921V56.224ZM187.593 54.624C187.337 54.624 187.119 54.544 186.937 54.384C186.767 54.224 186.681 54.0213 186.681 53.776C186.681 53.52 186.767 53.3173 186.937 53.168C187.119 53.008 187.337 52.928 187.593 52.928C187.849 52.928 188.063 53.008 188.233 53.168C188.415 53.3173 188.505 53.52 188.505 53.776C188.505 54.0213 188.415 54.224 188.233 54.384C188.063 54.544 187.849 54.624 187.593 54.624ZM194.011 64.192C193.488 64.192 192.998 64.1013 192.539 63.92C192.091 63.728 191.696 63.4613 191.355 63.12C191.024 62.768 190.763 62.3413 190.571 61.84C190.379 61.3387 190.283 60.768 190.283 60.128C190.283 59.488 190.379 58.9173 190.571 58.416C190.774 57.904 191.035 57.472 191.355 57.12C191.686 56.768 192.059 56.5013 192.475 56.32C192.891 56.128 193.323 56.032 193.771 56.032C194.262 56.032 194.699 56.1173 195.083 56.288C195.478 56.4587 195.803 56.704 196.059 57.024C196.326 57.344 196.528 57.728 196.667 58.176C196.806 58.624 196.875 59.1253 196.875 59.68C196.875 59.8187 196.87 59.9573 196.859 60.096C196.859 60.224 196.848 60.336 196.827 60.432H191.579C191.632 61.264 191.888 61.9253 192.347 62.416C192.816 62.896 193.424 63.136 194.171 63.136C194.544 63.136 194.886 63.0827 195.195 62.976C195.515 62.8587 195.819 62.7093 196.107 62.528L196.571 63.392C196.23 63.6053 195.851 63.792 195.435 63.952C195.019 64.112 194.544 64.192 194.011 64.192ZM195.723 59.488C195.723 58.6987 195.552 58.1013 195.211 57.696C194.88 57.28 194.411 57.072 193.803 57.072C193.526 57.072 193.259 57.1253 193.003 57.232C192.758 57.3387 192.534 57.4987 192.331 57.712C192.128 57.9147 191.958 58.1653 191.819 58.464C191.691 58.7627 191.606 59.104 191.563 59.488H195.723ZM198.796 56.224H199.884L199.996 57.344H200.044C200.418 56.9707 200.807 56.6613 201.212 56.416C201.628 56.16 202.108 56.032 202.652 56.032C203.474 56.032 204.071 56.288 204.444 56.8C204.828 57.312 205.02 58.0693 205.02 59.072V64H203.708V59.248C203.708 58.512 203.591 57.984 203.356 57.664C203.122 57.3333 202.748 57.168 202.236 57.168C201.831 57.168 201.474 57.2693 201.164 57.472C200.855 57.6747 200.503 57.9733 200.108 58.368V64H198.796V56.224ZM210.618 64.192C210.106 64.192 209.626 64.1013 209.178 63.92C208.73 63.7387 208.341 63.4773 208.01 63.136C207.69 62.784 207.434 62.3573 207.242 61.856C207.061 61.344 206.97 60.768 206.97 60.128C206.97 59.4773 207.072 58.9013 207.274 58.4C207.477 57.888 207.749 57.456 208.09 57.104C208.432 56.752 208.826 56.4853 209.274 56.304C209.733 56.1227 210.213 56.032 210.714 56.032C211.226 56.032 211.664 56.1227 212.026 56.304C212.389 56.4853 212.709 56.6987 212.986 56.944L212.314 57.808C212.09 57.6053 211.85 57.44 211.594 57.312C211.349 57.184 211.072 57.12 210.762 57.12C210.41 57.12 210.085 57.1947 209.786 57.344C209.488 57.4827 209.232 57.6853 209.018 57.952C208.805 58.2187 208.634 58.5387 208.506 58.912C208.389 59.2747 208.33 59.68 208.33 60.128C208.33 60.576 208.389 60.9813 208.506 61.344C208.624 61.7067 208.784 62.0213 208.986 62.288C209.2 62.544 209.456 62.7467 209.754 62.896C210.053 63.0347 210.378 63.104 210.73 63.104C211.093 63.104 211.424 63.0293 211.722 62.88C212.032 62.72 212.309 62.5333 212.554 62.32L213.13 63.2C212.778 63.5093 212.389 63.7547 211.962 63.936C211.536 64.1067 211.088 64.192 210.618 64.192ZM217.652 64.192C217.129 64.192 216.638 64.1013 216.18 63.92C215.732 63.728 215.337 63.4613 214.996 63.12C214.665 62.768 214.404 62.3413 214.212 61.84C214.02 61.3387 213.924 60.768 213.924 60.128C213.924 59.488 214.02 58.9173 214.212 58.416C214.414 57.904 214.676 57.472 214.996 57.12C215.326 56.768 215.7 56.5013 216.116 56.32C216.532 56.128 216.964 56.032 217.411 56.032C217.902 56.032 218.34 56.1173 218.724 56.288C219.118 56.4587 219.444 56.704 219.7 57.024C219.966 57.344 220.169 57.728 220.308 58.176C220.446 58.624 220.516 59.1253 220.516 59.68C220.516 59.8187 220.51 59.9573 220.5 60.096C220.5 60.224 220.489 60.336 220.468 60.432H215.22C215.273 61.264 215.529 61.9253 215.988 62.416C216.457 62.896 217.065 63.136 217.812 63.136C218.185 63.136 218.526 63.0827 218.836 62.976C219.156 62.8587 219.46 62.7093 219.748 62.528L220.212 63.392C219.87 63.6053 219.492 63.792 219.076 63.952C218.66 64.112 218.185 64.192 217.652 64.192ZM219.364 59.488C219.364 58.6987 219.193 58.1013 218.852 57.696C218.521 57.28 218.052 57.072 217.444 57.072C217.166 57.072 216.9 57.1253 216.644 57.232C216.398 57.3387 216.174 57.4987 215.972 57.712C215.769 57.9147 215.598 58.1653 215.46 58.464C215.332 58.7627 215.246 59.104 215.204 59.488H219.364Z" fill="#1E1624"/>
<rect x="1.5" y="1.5" width="239" height="93" rx="13.5" stroke="#DA1984" stroke-width="3"/>
<defs>
<clipPath id="clip0_369_4116">
<rect width="70" height="70" fill="white" transform="translate(13 13)"/>
</clipPath>
</defs>
</svg>
